<?xml version="1.0" encoding="iso-8859-1"?>
<!-- Generator: Adobe Illustrator 18.1.1, SVG Export Plug-In . SVG Version: 6.00 Build 0)  -->
<svg version="1.1" id="Capa_1" xmlns="http://www.w3.org/2000/svg" xmlns:xlink="http://www.w3.org/1999/xlink" x="0px" y="0px"
	 viewBox="0 0 20.106 20.106" style="enable-background:new 0 0 20.106 20.106;" xml:space="preserve">
<g>
	<path style="fill:#010002;" d="M0,3.646h2.15v0.791H0V3.646z M0,2.897h2.15V2.172H0V2.897z M0,5.914h2.15V5.189H0V5.914z
		 M20.106,18.241c-0.042,0.002-0.083,0.002-0.125,0.002c-1.833,0-3.934-1.414-4.851-2.809c-0.826,0.125-1.649-0.35-1.93-1.17
		l-0.978-2.857c-0.126,0.01-0.253,0.018-0.383,0.018c-2.641,0-4.782-2.14-4.782-4.781c0-0.143,0.008-0.281,0.021-0.422H3.095V1.863
		h8.743c2.641,0,4.782,2.14,4.782,4.781c0,1.223-0.463,2.332-1.216,3.18l1.129,3.301c0.257,0.746-0.024,1.541-0.628,1.984
		c0.835,1.182,2.675,2.367,4.169,2.301L20.106,18.241z M13.601,6.644c0-0.973-0.789-1.762-1.762-1.762
		c-0.974,0-1.762,0.789-1.762,1.762s0.788,1.764,1.762,1.764C12.812,8.408,13.601,7.617,13.601,6.644z"/>
</g>
<g>
</g>
<g>
</g>
<g>
</g>
<g>
</g>
<g>
</g>
<g>
</g>
<g>
</g>
<g>
</g>
<g>
</g>
<g>
</g>
<g>
</g>
<g>
</g>
<g>
</g>
<g>
</g>
<g>
</g>
</svg>
