<?xml version="1.0" encoding="utf-8"?>
<!-- Generator: Adobe Illustrator 16.0.0, SVG Export Plug-In . SVG Version: 6.00 Build 0)  -->
<!DOCTYPE svg PUBLIC "-//W3C//DTD SVG 1.1//EN" "http://www.w3.org/Graphics/SVG/1.1/DTD/svg11.dtd">
<svg version="1.1" id="Calque_1" xmlns="http://www.w3.org/2000/svg" xmlns:xlink="http://www.w3.org/1999/xlink" x="0px" y="0px"
	 width="300px" height="40px" viewBox="0 0 300 40" enable-background="new 0 0 300 40" xml:space="preserve">
<g>
	<path d="M22.299,29.193c-0.63-0.62-1.145-1.37-1.545-2.25c-0.4-0.881-0.705-1.805-0.915-2.775c-0.21-0.97-0.365-1.805-0.465-2.505
		c-0.72,0.101-1.436,0.216-2.145,0.345c-0.71,0.131-1.425,0.235-2.145,0.315c-0.42,0.899-0.896,1.935-1.425,3.104
		c-0.53,1.17-1.146,2.285-1.845,3.346c-0.7,1.06-1.51,1.949-2.43,2.67c-0.92,0.72-1.98,1.08-3.18,1.08c-0.14,0-0.33-0.011-0.57-0.03
		c-0.24-0.021-0.475-0.06-0.705-0.12s-0.43-0.15-0.6-0.27c-0.17-0.121-0.255-0.281-0.255-0.48c0-0.18,0.07-0.311,0.21-0.391
		c0.14-0.08,0.29-0.119,0.45-0.119c0.28,0,0.545,0.045,0.795,0.135c0.25,0.09,0.515,0.135,0.795,0.135c0.78,0,1.564-0.39,2.355-1.17
		c0.79-0.779,1.564-1.785,2.325-3.015c0.76-1.229,1.495-2.601,2.205-4.11s1.365-2.985,1.965-4.425c0.6-1.44,1.13-2.77,1.59-3.99
		c0.459-1.219,0.82-2.149,1.08-2.79c0.22-0.56,0.39-1.1,0.51-1.62s0.18-1.08,0.18-1.68c0-0.22,0.105-0.425,0.315-0.615
		s0.465-0.355,0.765-0.495c0.3-0.14,0.6-0.25,0.9-0.33c0.3-0.08,0.54-0.12,0.72-0.12c0.28,0,0.465,0.14,0.555,0.42
		c0.09,0.28,0.135,0.53,0.135,0.75c0,1.101-0.045,2.201-0.135,3.3c-0.09,1.1-0.135,2.2-0.135,3.3c0,0.88,0.01,1.75,0.03,2.61
		c0.02,0.86,0.08,1.73,0.18,2.61c0.48-0.06,0.96-0.135,1.44-0.225s0.96-0.135,1.44-0.135c0.14,0,0.27,0.03,0.39,0.09
		c0.12,0.06,0.18,0.17,0.18,0.33c0,0.22-0.08,0.39-0.24,0.51c-0.161,0.12-0.33,0.21-0.51,0.27c-0.36,0.14-0.78,0.23-1.26,0.27
		c-0.48,0.041-0.92,0.09-1.32,0.15c0.02,0.22,0.06,0.55,0.12,0.99c0.06,0.439,0.145,0.92,0.255,1.439s0.24,1.05,0.39,1.59
		s0.325,1.035,0.525,1.484c0.2,0.451,0.425,0.816,0.675,1.096c0.25,0.28,0.525,0.42,0.825,0.42c0.5,0,0.97-0.12,1.41-0.359
		c0.439-0.24,0.85-0.541,1.23-0.9c0.38-0.36,0.735-0.75,1.065-1.17s0.625-0.811,0.885-1.17c0.1-0.1,0.199-0.211,0.3-0.33
		c0.1-0.12,0.229-0.18,0.39-0.18c0.1,0,0.21,0.039,0.33,0.119c0.12,0.08,0.18,0.18,0.18,0.301c0,0.14-0.025,0.27-0.075,0.39
		c-0.05,0.12-0.105,0.239-0.165,0.36c-0.24,0.439-0.57,0.939-0.99,1.5c-0.42,0.56-0.885,1.08-1.395,1.56
		c-0.51,0.479-1.05,0.885-1.62,1.215c-0.57,0.33-1.135,0.495-1.695,0.495C23.705,30.123,22.93,29.813,22.299,29.193z M18.805,16.563
		c-0.021-0.36-0.03-0.74-0.03-1.14c0-0.399-0.05-0.77-0.15-1.11c0-0.02-0.01-0.055-0.03-0.105c-0.021-0.05-0.05-0.075-0.09-0.075
		s-0.11,0.11-0.21,0.33c-0.1,0.221-0.205,0.47-0.315,0.75c-0.11,0.28-0.21,0.55-0.3,0.81c-0.09,0.26-0.155,0.44-0.195,0.54
		c-0.28,0.74-0.565,1.475-0.855,2.205c-0.29,0.73-0.605,1.455-0.945,2.175c0.58-0.1,1.16-0.18,1.74-0.24s1.16-0.13,1.74-0.21
		C19.024,19.213,18.904,17.903,18.805,16.563z"/>
	<path d="M37.974,30.498c-0.16-0.11-0.3-0.245-0.42-0.404c-0.12-0.161-0.22-0.33-0.3-0.511c-0.08-0.181-0.12-0.34-0.12-0.479
		c0-0.301,0.07-0.525,0.21-0.676c0.14-0.15,0.315-0.26,0.525-0.33c0.21-0.069,0.425-0.129,0.645-0.18
		c0.22-0.05,0.42-0.125,0.6-0.225c0.44-0.28,0.785-0.855,1.035-1.725c0.25-0.871,0.459-1.916,0.63-3.136
		c0.169-1.22,0.334-2.54,0.495-3.96c0.16-1.42,0.37-2.815,0.63-4.185c0.26-1.37,0.604-2.645,1.035-3.825
		c0.43-1.18,0.995-2.13,1.695-2.85c0.34-0.34,0.73-0.64,1.17-0.9s0.9-0.39,1.38-0.39c0.58,0,1.065,0.165,1.455,0.495
		c0.39,0.33,0.715,0.735,0.975,1.215c0.26,0.48,0.445,1,0.555,1.56c0.109,0.56,0.165,1.07,0.165,1.53c0,0.22-0.041,0.39-0.12,0.51
		c-0.08,0.12-0.24,0.18-0.48,0.18c-0.28,0-0.46-0.205-0.54-0.615c-0.08-0.41-0.165-0.86-0.255-1.35
		c-0.09-0.49-0.235-0.94-0.435-1.35c-0.2-0.41-0.57-0.615-1.11-0.615c-0.5,0-0.94,0.405-1.32,1.215s-0.725,1.85-1.035,3.12
		s-0.585,2.665-0.825,4.185c-0.24,1.52-0.465,2.99-0.675,4.41c-0.21,1.42-0.405,2.695-0.585,3.825c-0.18,1.13-0.37,1.935-0.57,2.415
		c0.6,0,1.185,0.08,1.755,0.24c0.57,0.16,1.135,0.33,1.695,0.51c0.56,0.18,1.125,0.35,1.695,0.51s1.155,0.24,1.755,0.24
		c0.8,0,1.485-0.215,2.055-0.645c0.57-0.43,1.065-0.9,1.485-1.41s0.775-0.98,1.065-1.41s0.545-0.645,0.765-0.645
		c0.1,0,0.21,0.039,0.33,0.119s0.18,0.18,0.18,0.301c0,0.14-0.025,0.27-0.075,0.389c-0.05,0.121-0.105,0.24-0.165,0.361
		c-0.26,0.479-0.575,0.975-0.945,1.484c-0.371,0.51-0.791,0.975-1.26,1.395c-0.47,0.42-0.975,0.76-1.515,1.021
		c-0.54,0.26-1.11,0.39-1.71,0.39c-0.58,0-1.155-0.045-1.725-0.135c-0.57-0.09-1.135-0.19-1.695-0.3
		c-0.56-0.11-1.125-0.21-1.695-0.3c-0.57-0.09-1.146-0.135-1.725-0.135c-0.68,0-1.335,0.115-1.965,0.344
		c-0.63,0.23-1.245,0.485-1.845,0.766c-0.16,0.08-0.3,0.12-0.42,0.12C38.284,30.663,38.134,30.607,37.974,30.498z"/>
	<path d="M67.569,25.413c-0.17,0.239-0.305,0.44-0.405,0.601c-0.28,0.379-0.62,0.82-1.02,1.319c-0.4,0.5-0.835,0.97-1.305,1.41
		c-0.47,0.44-0.97,0.81-1.5,1.11c-0.53,0.299-1.055,0.449-1.575,0.449c-0.5,0-0.9-0.175-1.2-0.525c-0.3-0.35-0.53-0.77-0.69-1.26
		c-0.16-0.489-0.26-1-0.3-1.529s-0.05-0.975-0.03-1.336c-0.2,0.301-0.455,0.676-0.765,1.125c-0.31,0.451-0.655,0.886-1.035,1.306
		c-0.38,0.42-0.775,0.78-1.185,1.08c-0.41,0.3-0.815,0.45-1.215,0.45c-0.36,0-0.66-0.109-0.9-0.33
		c-0.24-0.221-0.425-0.49-0.555-0.811c-0.13-0.319-0.221-0.66-0.27-1.02c-0.05-0.359-0.075-0.68-0.075-0.96
		c0-0.78,0.19-1.67,0.57-2.67s0.885-1.944,1.515-2.835c0.63-0.89,1.35-1.635,2.16-2.235s1.655-0.9,2.535-0.9
		c0.22,0,0.44,0.101,0.66,0.3c0.22,0.2,0.33,0.41,0.33,0.63c0,0.1-0.03,0.175-0.09,0.225s-0.13,0.095-0.21,0.135
		c-0.54,0.32-1.055,0.655-1.545,1.005c-0.49,0.35-0.955,0.755-1.395,1.215c-0.78,0.8-1.4,1.695-1.86,2.685
		c-0.46,0.99-0.69,2.056-0.69,3.195c0,0.12,0.02,0.271,0.06,0.45c0.04,0.18,0.15,0.27,0.33,0.27c0.22,0,0.47-0.135,0.75-0.404
		c0.28-0.271,0.57-0.61,0.87-1.021c0.3-0.409,0.595-0.87,0.885-1.38c0.29-0.51,0.565-1.006,0.825-1.485
		c0.259-0.479,0.484-0.925,0.675-1.335c0.19-0.41,0.334-0.715,0.435-0.915c0.1-0.22,0.225-0.424,0.375-0.615
		c0.15-0.19,0.365-0.285,0.645-0.285c0.16,0,0.315,0.03,0.465,0.09c0.15,0.06,0.225,0.19,0.225,0.39c0,0.22-0.07,0.511-0.21,0.87
		c-0.14,0.359-0.25,0.65-0.33,0.87c-0.16,0.521-0.275,1.075-0.345,1.665s-0.105,1.145-0.105,1.665c0,0.16,0.005,0.399,0.015,0.72
		c0.01,0.32,0.045,0.645,0.105,0.975s0.155,0.621,0.285,0.871c0.13,0.25,0.315,0.375,0.555,0.375c0.36,0,0.76-0.16,1.2-0.48
		s0.87-0.695,1.29-1.125s0.81-0.875,1.17-1.335s0.63-0.83,0.81-1.11c0.1-0.16,0.21-0.324,0.33-0.494s0.29-0.256,0.51-0.256
		c0.32,0,0.48,0.19,0.48,0.57C67.824,24.963,67.739,25.173,67.569,25.413z"/>
	<path d="M82.284,28.923c-0.14-0.38-0.25-0.864-0.33-1.454s-0.14-1.235-0.18-1.936c-0.041-0.7-0.06-1.381-0.06-2.04
		c0-0.66,0-1.239,0-1.74c0-0.52,0-0.88,0-1.08c0-0.1-0.01-0.229-0.03-0.39s-0.11-0.24-0.27-0.24c-0.2,0-0.476,0.185-0.825,0.555
		c-0.35,0.37-0.73,0.845-1.14,1.425c-0.41,0.58-0.83,1.22-1.26,1.92c-0.431,0.7-0.835,1.38-1.215,2.039
		c-0.38,0.66-0.71,1.251-0.99,1.771c-0.28,0.521-0.47,0.899-0.57,1.14c-0.101,0.221-0.235,0.426-0.405,0.615
		s-0.395,0.285-0.675,0.285c-0.2,0-0.35-0.064-0.45-0.195c-0.1-0.129-0.15-0.285-0.15-0.465c0-0.3,0.045-0.77,0.135-1.41
		c0.09-0.64,0.2-1.365,0.33-2.175c0.13-0.81,0.285-1.654,0.465-2.534c0.18-0.881,0.36-1.715,0.54-2.505
		c0.18-0.79,0.36-1.485,0.54-2.085c0.18-0.6,0.33-1.02,0.45-1.26c0.22-0.4,0.56-0.7,1.02-0.9c0.46-0.2,0.9-0.3,1.32-0.3
		c0.22,0,0.38,0.065,0.48,0.195c0.1,0.13,0.15,0.305,0.15,0.525c0,0.2-0.041,0.44-0.12,0.72c-0.08,0.281-0.18,0.565-0.3,0.855
		c-0.12,0.29-0.24,0.575-0.36,0.855s-0.22,0.52-0.3,0.72c-0.221,0.54-0.4,1.1-0.54,1.681c-0.14,0.58-0.26,1.16-0.36,1.739
		c0.22-0.319,0.52-0.77,0.9-1.351c0.379-0.579,0.795-1.149,1.245-1.709c0.45-0.56,0.915-1.044,1.395-1.455
		c0.48-0.41,0.92-0.615,1.32-0.615c0.28,0,0.5,0.09,0.66,0.27s0.285,0.4,0.375,0.66c0.09,0.26,0.15,0.53,0.18,0.81
		c0.03,0.28,0.045,0.52,0.045,0.72c0,0.581-0.01,1.16-0.03,1.74c-0.02,0.58-0.03,1.16-0.03,1.739c0,0.301,0,0.621,0,0.961
		c0,0.32,0.04,0.629,0.12,0.93c0,0.02,0.01,0.061,0.03,0.12c0.02,0.06,0.049,0.09,0.09,0.09c0.06,0,0.135-0.075,0.225-0.226
		c0.09-0.149,0.154-0.254,0.195-0.314c0.36-0.6,0.745-1.186,1.155-1.755c0.41-0.57,0.815-1.146,1.215-1.726
		c0.24-0.34,0.52-0.739,0.84-1.2c0.32-0.459,0.665-0.9,1.035-1.32c0.37-0.42,0.77-0.78,1.2-1.08c0.43-0.3,0.875-0.45,1.335-0.45
		c0.32,0,0.6,0.08,0.84,0.24c0.24,0.16,0.435,0.36,0.585,0.6c0.15,0.24,0.26,0.505,0.33,0.795c0.07,0.29,0.105,0.575,0.105,0.855
		c0,1.16-0.07,2.315-0.21,3.465c-0.14,1.15-0.21,2.306-0.21,3.466c0,0.14,0.004,0.305,0.015,0.494c0.01,0.19,0.04,0.365,0.09,0.525
		c0.049,0.16,0.13,0.3,0.24,0.42s0.265,0.18,0.465,0.18c0.34,0,0.725-0.135,1.155-0.404c0.43-0.271,0.855-0.596,1.275-0.976
		s0.81-0.774,1.17-1.185c0.36-0.41,0.64-0.745,0.84-1.006c0.1-0.139,0.229-0.305,0.39-0.494s0.34-0.285,0.54-0.285
		c0.18,0,0.295,0.07,0.345,0.21c0.05,0.14,0.075,0.28,0.075,0.42c0,0.101-0.035,0.205-0.105,0.315
		c-0.07,0.109-0.135,0.205-0.195,0.285c-0.3,0.4-0.695,0.869-1.185,1.409c-0.49,0.54-1.03,1.056-1.62,1.546s-1.19,0.904-1.8,1.244
		c-0.61,0.34-1.175,0.51-1.695,0.51c-0.5,0-0.885-0.14-1.155-0.42c-0.27-0.279-0.475-0.63-0.615-1.05
		c-0.14-0.42-0.225-0.859-0.255-1.319c-0.03-0.461-0.045-0.871-0.045-1.23c0-0.9,0.045-1.801,0.135-2.7
		c0.09-0.899,0.135-1.81,0.135-2.729c0-0.08-0.005-0.19-0.015-0.331c-0.01-0.14-0.03-0.274-0.06-0.405
		c-0.03-0.13-0.081-0.245-0.15-0.345c-0.07-0.1-0.165-0.15-0.285-0.15c-0.24,0-0.54,0.185-0.9,0.555
		c-0.36,0.37-0.746,0.845-1.155,1.425c-0.41,0.58-0.83,1.225-1.26,1.935c-0.431,0.71-0.835,1.396-1.215,2.056
		c-0.38,0.659-0.715,1.255-1.005,1.784c-0.29,0.53-0.515,0.915-0.675,1.155c-0.101,0.16-0.21,0.29-0.33,0.391
		c-0.12,0.1-0.28,0.149-0.48,0.149C82.594,29.493,82.423,29.303,82.284,28.923z"/>
	<path d="M111.489,25.413c-0.17,0.239-0.305,0.44-0.405,0.601c-0.28,0.379-0.62,0.82-1.02,1.319c-0.4,0.5-0.835,0.97-1.305,1.41
		c-0.47,0.44-0.97,0.81-1.5,1.11c-0.53,0.299-1.055,0.449-1.575,0.449c-0.5,0-0.9-0.175-1.2-0.525c-0.3-0.35-0.53-0.77-0.69-1.26
		c-0.16-0.489-0.26-1-0.3-1.529s-0.05-0.975-0.03-1.336c-0.2,0.301-0.455,0.676-0.765,1.125c-0.31,0.451-0.655,0.886-1.035,1.306
		c-0.38,0.42-0.775,0.78-1.185,1.08c-0.41,0.3-0.815,0.45-1.215,0.45c-0.36,0-0.66-0.109-0.9-0.33
		c-0.24-0.221-0.425-0.49-0.555-0.811c-0.13-0.319-0.221-0.66-0.27-1.02c-0.05-0.359-0.075-0.68-0.075-0.96
		c0-0.78,0.19-1.67,0.57-2.67s0.885-1.944,1.515-2.835c0.63-0.89,1.35-1.635,2.16-2.235s1.655-0.9,2.535-0.9
		c0.22,0,0.44,0.101,0.66,0.3c0.22,0.2,0.33,0.41,0.33,0.63c0,0.1-0.03,0.175-0.09,0.225s-0.13,0.095-0.21,0.135
		c-0.54,0.32-1.055,0.655-1.545,1.005c-0.49,0.35-0.955,0.755-1.395,1.215c-0.78,0.8-1.4,1.695-1.86,2.685
		c-0.46,0.99-0.69,2.056-0.69,3.195c0,0.12,0.02,0.271,0.06,0.45c0.04,0.18,0.15,0.27,0.33,0.27c0.22,0,0.47-0.135,0.75-0.404
		c0.28-0.271,0.57-0.61,0.87-1.021c0.3-0.409,0.595-0.87,0.885-1.38c0.29-0.51,0.565-1.006,0.825-1.485
		c0.259-0.479,0.484-0.925,0.675-1.335c0.19-0.41,0.334-0.715,0.435-0.915c0.1-0.22,0.225-0.424,0.375-0.615
		c0.15-0.19,0.365-0.285,0.645-0.285c0.16,0,0.315,0.03,0.465,0.09c0.15,0.06,0.225,0.19,0.225,0.39c0,0.22-0.07,0.511-0.21,0.87
		c-0.14,0.359-0.25,0.65-0.33,0.87c-0.16,0.521-0.275,1.075-0.345,1.665s-0.105,1.145-0.105,1.665c0,0.16,0.005,0.399,0.015,0.72
		c0.01,0.32,0.045,0.645,0.105,0.975s0.155,0.621,0.285,0.871c0.13,0.25,0.315,0.375,0.555,0.375c0.36,0,0.76-0.16,1.2-0.48
		s0.87-0.695,1.29-1.125s0.81-0.875,1.17-1.335s0.63-0.83,0.81-1.11c0.1-0.16,0.21-0.324,0.33-0.494s0.29-0.256,0.51-0.256
		c0.32,0,0.48,0.19,0.48,0.57C111.744,24.963,111.659,25.173,111.489,25.413z"/>
	<path d="M113.048,26.793c0.01,0.301,0.05,0.6,0.12,0.9c0.07,0.3,0.175,0.561,0.315,0.779c0.14,0.221,0.34,0.33,0.6,0.33
		c0.399,0,0.834-0.185,1.305-0.555c0.47-0.369,0.93-0.811,1.38-1.32c0.45-0.51,0.86-1.035,1.23-1.574
		c0.37-0.541,0.655-0.971,0.855-1.291c0.1-0.139,0.215-0.299,0.345-0.479c0.13-0.181,0.295-0.271,0.495-0.271
		c0.2,0,0.315,0.07,0.345,0.211c0.03,0.14,0.045,0.289,0.045,0.449c0,0.101-0.03,0.221-0.09,0.36s-0.135,0.285-0.225,0.435
		c-0.09,0.15-0.18,0.291-0.27,0.42c-0.09,0.131-0.165,0.236-0.225,0.315c-0.28,0.4-0.641,0.876-1.08,1.425
		c-0.44,0.551-0.925,1.076-1.455,1.575c-0.53,0.501-1.075,0.925-1.635,1.274c-0.56,0.351-1.11,0.525-1.65,0.525
		c-0.6,0-1.075-0.186-1.425-0.555c-0.35-0.369-0.625-0.82-0.825-1.35c-0.2-0.53-0.33-1.09-0.39-1.68
		c-0.06-0.59-0.09-1.105-0.09-1.546c0-0.56,0.065-1.185,0.195-1.875c0.13-0.69,0.274-1.294,0.435-1.815
		c0.18-0.54,0.425-0.994,0.735-1.364c0.31-0.37,0.785-0.555,1.425-0.555c0.46,0,0.69,0.22,0.69,0.66c0,0.2-0.035,0.435-0.105,0.705
		c-0.07,0.27-0.155,0.55-0.255,0.839c-0.1,0.291-0.2,0.58-0.3,0.871c-0.101,0.289-0.18,0.545-0.24,0.764
		c-0.18,0.861-0.27,1.751-0.27,2.671C113.033,26.253,113.038,26.493,113.048,26.793z M114.998,15.318
		c0.19,0.23,0.285,0.495,0.285,0.795c0,0.4-0.14,0.765-0.42,1.095c-0.28,0.33-0.62,0.495-1.02,0.495c-0.32,0-0.57-0.115-0.75-0.345
		c-0.18-0.229-0.27-0.495-0.27-0.795c0-0.379,0.135-0.74,0.405-1.08c0.27-0.34,0.605-0.51,1.005-0.51
		C114.553,14.973,114.808,15.088,114.998,15.318z"/>
	<path d="M122.783,19.803c0.24,0.58,0.52,1.16,0.84,1.74c0.319,0.58,0.63,1.166,0.93,1.755c0.3,0.591,0.55,1.195,0.75,1.815
		c0.2,0.62,0.3,1.25,0.3,1.89c0,0.4-0.056,0.8-0.165,1.2c-0.11,0.4-0.285,0.77-0.525,1.109c0.36,0.021,0.78-0.135,1.26-0.465
		s0.96-0.72,1.44-1.17c0.48-0.449,0.92-0.91,1.32-1.38c0.399-0.47,0.69-0.845,0.87-1.125c0.1-0.14,0.22-0.305,0.36-0.495
		c0.14-0.189,0.31-0.285,0.51-0.285c0.18,0,0.3,0.061,0.36,0.181c0.06,0.12,0.09,0.26,0.09,0.42c0,0.101-0.035,0.205-0.105,0.315
		c-0.07,0.109-0.125,0.215-0.165,0.314c-0.56,0.881-1.15,1.67-1.77,2.37c-0.62,0.7-1.295,1.29-2.025,1.771
		c-0.73,0.479-1.541,0.844-2.43,1.094c-0.89,0.25-1.875,0.375-2.955,0.375c-0.58,0-1.205-0.06-1.875-0.18
		c-0.67-0.119-1.225-0.39-1.665-0.81c-0.1-0.101-0.18-0.2-0.24-0.3c-0.06-0.101-0.09-0.221-0.09-0.36c0-0.3,0.161-0.45,0.48-0.45
		c0.12,0,0.215,0.021,0.285,0.061c0.07,0.04,0.155,0.09,0.255,0.15c0.34,0.22,0.68,0.369,1.02,0.449c0.34,0.08,0.71,0.12,1.11,0.12
		c0.799,0,1.405-0.245,1.815-0.735c0.41-0.49,0.615-1.114,0.615-1.875c0-0.459-0.065-0.949-0.195-1.47
		c-0.13-0.521-0.295-1.04-0.495-1.56c-0.2-0.52-0.425-1.025-0.675-1.516c-0.25-0.49-0.495-0.914-0.735-1.275
		c-0.14,0.4-0.315,0.846-0.525,1.336s-0.445,0.975-0.705,1.455c-0.26,0.479-0.535,0.939-0.825,1.379
		c-0.29,0.441-0.585,0.811-0.885,1.111c-0.1,0.1-0.215,0.205-0.345,0.314s-0.275,0.165-0.435,0.165c-0.28,0-0.42-0.14-0.42-0.42
		c0-0.16,0.035-0.3,0.105-0.421c0.07-0.119,0.155-0.239,0.255-0.359c1.36-1.699,2.38-3.609,3.06-5.73
		c-0.18-0.52-0.27-1.05-0.27-1.59c0-0.3,0.05-0.65,0.15-1.05c0.1-0.399,0.24-0.78,0.42-1.14c0.18-0.36,0.41-0.67,0.69-0.93
		c0.28-0.26,0.6-0.39,0.96-0.39c0.18,0,0.335,0.056,0.465,0.165c0.13,0.11,0.229,0.25,0.3,0.42c0.07,0.17,0.12,0.345,0.15,0.525
		c0.03,0.18,0.045,0.35,0.045,0.51c0,0.5-0.07,1.005-0.21,1.515C123.123,18.858,122.963,19.343,122.783,19.803z"/>
	<path d="M130.778,23.703c0.25-0.92,0.615-1.779,1.095-2.58c0.48-0.8,1.065-1.475,1.755-2.025c0.69-0.55,1.485-0.825,2.385-0.825
		c0.56,0,1.02,0.13,1.38,0.39c0.36,0.26,0.645,0.59,0.855,0.99c0.21,0.4,0.36,0.84,0.45,1.32s0.135,0.951,0.135,1.41
		c0,0.66-0.06,1.325-0.18,1.995c-0.12,0.671-0.311,1.315-0.57,1.935c-0.26,0.621-0.59,1.201-0.99,1.74c-0.4,0.541-0.89,1-1.47,1.381
		c-0.34,0.219-0.71,0.404-1.11,0.555c-0.4,0.15-0.81,0.225-1.23,0.225c-0.54,0-0.995-0.125-1.365-0.375
		c-0.371-0.25-0.666-0.564-0.885-0.945c-0.22-0.379-0.38-0.81-0.48-1.289c-0.1-0.48-0.15-0.94-0.15-1.381
		C130.403,25.463,130.527,24.623,130.778,23.703z M134.528,20.943c-0.43,0.46-0.791,1.01-1.08,1.651c-0.29,0.64-0.51,1.3-0.66,1.979
		c-0.15,0.681-0.225,1.25-0.225,1.71c0,0.24,0.02,0.506,0.06,0.795c0.04,0.29,0.115,0.555,0.225,0.795s0.265,0.445,0.465,0.615
		c0.2,0.17,0.45,0.255,0.75,0.255c0.26,0,0.505-0.056,0.735-0.165c0.229-0.109,0.445-0.244,0.645-0.405
		c0.38-0.3,0.705-0.655,0.975-1.065c0.27-0.409,0.49-0.844,0.66-1.305c0.17-0.459,0.295-0.935,0.375-1.425
		c0.08-0.489,0.12-0.964,0.12-1.425c0-0.24-0.02-0.52-0.06-0.84s-0.12-0.615-0.24-0.885c-0.12-0.271-0.28-0.5-0.48-0.69
		c-0.2-0.19-0.46-0.285-0.78-0.285C135.453,20.253,134.958,20.483,134.528,20.943z"/>
	<path d="M140.873,30.498c-0.101-0.15-0.15-0.325-0.15-0.525c0-1.479,0.155-3,0.465-4.56c0.31-1.56,0.615-3.06,0.915-4.5
		c0.1-0.46,0.189-0.93,0.27-1.41c0.08-0.48,0.169-0.95,0.27-1.41c0.08-0.36,0.294-0.69,0.645-0.99c0.35-0.3,0.715-0.45,1.095-0.45
		c0.34,0,0.575,0.09,0.705,0.27c0.13,0.18,0.195,0.431,0.195,0.75c0,0.521-0.085,1.065-0.255,1.635s-0.345,1.095-0.525,1.575
		c-0.22,0.56-0.39,1.13-0.51,1.71c-0.12,0.58-0.22,1.16-0.3,1.739c0.22-0.319,0.545-0.78,0.975-1.38
		c0.43-0.6,0.895-1.189,1.395-1.77c0.5-0.581,1.005-1.09,1.515-1.531c0.51-0.439,0.955-0.66,1.335-0.66c0.3,0,0.54,0.11,0.72,0.33
		s0.315,0.49,0.405,0.81c0.09,0.32,0.145,0.64,0.165,0.96c0.02,0.319,0.03,0.59,0.03,0.809c0,0.701-0.02,1.4-0.06,2.101
		c-0.041,0.7-0.06,1.4-0.06,2.101c0,0.18,0.005,0.375,0.015,0.584c0.01,0.211,0.045,0.406,0.105,0.586s0.155,0.33,0.285,0.449
		c0.13,0.121,0.315,0.18,0.554,0.18c0.4,0,0.806-0.154,1.216-0.465c0.409-0.309,0.805-0.68,1.185-1.109s0.721-0.875,1.02-1.335
		c0.301-0.46,0.531-0.851,0.691-1.17c0.078-0.14,0.18-0.3,0.299-0.479c0.121-0.181,0.27-0.271,0.451-0.271
		c0.158,0,0.285,0.065,0.375,0.194c0.09,0.131,0.135,0.266,0.135,0.405c0,0.081-0.025,0.181-0.076,0.3
		c-0.049,0.121-0.094,0.221-0.135,0.301c-0.221,0.46-0.535,0.984-0.945,1.574s-0.879,1.146-1.409,1.666
		c-0.53,0.52-1.091,0.959-1.681,1.319s-1.164,0.54-1.725,0.54c-0.52,0-0.925-0.135-1.215-0.404c-0.29-0.271-0.51-0.605-0.66-1.006
		c-0.15-0.4-0.24-0.83-0.27-1.29c-0.03-0.46-0.045-0.88-0.045-1.26c0-0.58,0.02-1.149,0.06-1.71c0.04-0.56,0.06-1.13,0.06-1.71
		c0-0.079-0.015-0.2-0.045-0.36c-0.03-0.16-0.105-0.24-0.225-0.24c-0.1,0-0.22,0.061-0.36,0.181c-0.14,0.12-0.25,0.22-0.33,0.3
		c-0.5,0.48-0.97,1.04-1.41,1.68c-0.44,0.641-0.84,1.25-1.2,1.83c-0.44,0.701-0.84,1.416-1.2,2.145
		c-0.36,0.73-0.71,1.477-1.05,2.236c-0.12,0.239-0.285,0.459-0.495,0.659s-0.455,0.3-0.735,0.3
		C141.132,30.723,140.973,30.648,140.873,30.498z"/>
	<path d="M165.518,30.469c-0.07,0.169-0.16,0.294-0.27,0.375c-0.111,0.079-0.262,0.124-0.451,0.135
		c-0.189,0.01-0.465,0.015-0.824,0.015c-0.16,0-0.371-0.025-0.631-0.075c-0.26-0.051-0.389-0.186-0.389-0.404
		c0-1.34,0.074-2.676,0.225-4.006s0.314-2.654,0.494-3.975c0.279-2.06,0.59-4.11,0.93-6.15c0.34-2.04,0.74-4.08,1.201-6.12
		c-0.281,0.04-0.566,0.075-0.855,0.105c-0.291,0.03-0.576,0.065-0.855,0.105c-0.16,0.04-0.305,0.07-0.436,0.09
		c-0.129,0.02-0.273,0.03-0.434,0.03c-0.32,0-0.48-0.13-0.48-0.39c0-0.22,0.141-0.39,0.42-0.51c0.279-0.12,0.605-0.21,0.975-0.27
		c0.371-0.06,0.736-0.1,1.096-0.12s0.619-0.03,0.779-0.03c0.041-0.2,0.096-0.39,0.166-0.57c0.068-0.18,0.135-0.36,0.195-0.54
		c0.139-0.38,0.314-0.685,0.523-0.915c0.211-0.229,0.506-0.425,0.885-0.585c0.381-0.16,0.75-0.24,1.111-0.24
		c0.119,0,0.229,0.041,0.33,0.12c0.1,0.08,0.15,0.19,0.15,0.33c0,0.041-0.021,0.12-0.061,0.24c-0.16,0.32-0.275,0.66-0.346,1.02
		c-0.07,0.36-0.145,0.71-0.225,1.05c1.52-0.02,2.914,0.16,4.186,0.54c1.27,0.38,2.369,0.955,3.299,1.725s1.656,1.75,2.176,2.94
		s0.779,2.585,0.779,4.185c0,1.26-0.289,2.42-0.869,3.479c-0.58,1.061-1.326,2.016-2.234,2.865c-0.912,0.851-1.916,1.59-3.016,2.221
		c-1.1,0.629-2.17,1.154-3.211,1.574c-0.58,0.221-1.25,0.44-2.01,0.66c-0.76,0.221-1.449,0.33-2.07,0.33
		C165.672,30.043,165.588,30.298,165.518,30.469z M167.873,27.498c0.639-0.189,1.279-0.415,1.92-0.675
		c0.879-0.36,1.773-0.8,2.684-1.32c0.91-0.52,1.736-1.13,2.477-1.83c0.738-0.7,1.344-1.489,1.814-2.37
		c0.469-0.879,0.705-1.849,0.705-2.91c0-1.26-0.24-2.395-0.721-3.405s-1.131-1.865-1.949-2.565c-0.82-0.7-1.771-1.24-2.85-1.62
		c-1.08-0.38-2.221-0.58-3.422-0.6c-0.738,3.72-1.398,7.49-1.979,11.311c-0.16,1.06-0.311,2.114-0.451,3.164
		c-0.139,1.051-0.209,2.115-0.209,3.195C166.572,27.813,167.232,27.688,167.873,27.498z"/>
	<path d="M180.848,22.969c0.129-0.95,0.334-1.855,0.615-2.716c0.16-0.459,0.424-0.82,0.795-1.08c0.369-0.259,0.785-0.39,1.244-0.39
		c0.461,0,0.691,0.22,0.691,0.66c0,0.161-0.025,0.326-0.076,0.495c-0.051,0.17-0.096,0.335-0.135,0.495
		c-0.16,0.5-0.326,1.049-0.494,1.65c-0.172,0.601-0.32,1.215-0.451,1.845c-0.131,0.631-0.24,1.256-0.33,1.875
		c-0.09,0.621-0.135,1.19-0.135,1.711c0,0.199,0.025,0.449,0.076,0.75c0.049,0.299,0.213,0.449,0.494,0.449
		c0.34,0,0.715-0.154,1.125-0.465s0.83-0.709,1.26-1.2c0.43-0.489,0.855-1.034,1.275-1.635s0.811-1.194,1.17-1.785
		c0.359-0.589,0.68-1.135,0.959-1.635c0.281-0.5,0.48-0.899,0.602-1.2c0.078-0.18,0.158-0.385,0.24-0.615
		c0.078-0.23,0.18-0.44,0.299-0.63c0.121-0.189,0.266-0.35,0.436-0.48c0.17-0.13,0.385-0.195,0.645-0.195
		c0.18,0,0.334,0.03,0.465,0.09s0.195,0.2,0.195,0.42c0,0.2-0.035,0.395-0.105,0.585s-0.135,0.375-0.195,0.555
		c-0.16,0.44-0.314,0.94-0.465,1.5c-0.148,0.56-0.279,1.13-0.389,1.709c-0.111,0.581-0.195,1.16-0.256,1.74s-0.09,1.101-0.09,1.561
		c0,0.141,0.01,0.33,0.029,0.57s0.061,0.475,0.121,0.705c0.061,0.229,0.15,0.43,0.27,0.6s0.279,0.255,0.48,0.255
		c0.299,0,0.68-0.205,1.139-0.615c0.461-0.409,0.92-0.89,1.381-1.44c0.459-0.549,0.885-1.094,1.275-1.635
		c0.391-0.539,0.664-0.939,0.824-1.199c0.1-0.141,0.234-0.325,0.406-0.555c0.168-0.23,0.344-0.346,0.523-0.346
		c0.182,0,0.295,0.055,0.346,0.165c0.049,0.11,0.074,0.245,0.074,0.405c0,0.1-0.025,0.205-0.074,0.314
		c-0.051,0.11-0.096,0.215-0.135,0.315c-0.24,0.479-0.6,1.056-1.08,1.725c-0.48,0.671-1.02,1.315-1.619,1.935
		c-0.602,0.621-1.221,1.15-1.861,1.591c-0.641,0.439-1.25,0.659-1.83,0.659c-0.459,0-0.82-0.16-1.08-0.479s-0.459-0.7-0.6-1.14
		s-0.225-0.904-0.254-1.395c-0.031-0.49-0.047-0.896-0.047-1.216c0-0.2,0-0.39,0-0.569c0-0.181,0.021-0.371,0.061-0.57
		c-0.299,0.42-0.664,0.91-1.094,1.47c-0.432,0.56-0.906,1.091-1.426,1.59c-0.52,0.501-1.064,0.925-1.635,1.275
		c-0.57,0.35-1.135,0.524-1.695,0.524c-0.539,0-0.955-0.149-1.244-0.449c-0.291-0.301-0.502-0.665-0.631-1.096
		c-0.131-0.43-0.211-0.889-0.24-1.38c-0.029-0.489-0.045-0.925-0.045-1.305C180.652,24.844,180.717,23.918,180.848,22.969z"/>
	<path d="M211.957,19.068c0.791,0.25,1.555,0.57,2.295,0.96c0.74,0.39,1.371,0.855,1.891,1.395c0.52,0.54,0.779,1.16,0.779,1.86
		c0,0.68-0.199,1.311-0.6,1.89c-0.4,0.581-0.914,1.11-1.545,1.591c-0.629,0.479-1.35,0.899-2.16,1.26
		c-0.811,0.359-1.625,0.664-2.445,0.914c-0.82,0.251-1.609,0.441-2.369,0.57c-0.76,0.131-1.41,0.195-1.951,0.195
		c-0.199,0.52-0.42,0.845-0.658,0.975c-0.24,0.131-0.631,0.195-1.17,0.195c-0.162,0-0.365-0.025-0.615-0.075
		c-0.252-0.05-0.375-0.185-0.375-0.405c0-0.38,0.014-0.76,0.045-1.14c0.029-0.38,0.064-0.76,0.104-1.14
		c0.061-0.66,0.121-1.324,0.182-1.995c0.059-0.67,0.129-1.335,0.209-1.995c0.24-2.16,0.529-4.294,0.871-6.405
		c0.34-2.11,0.738-4.225,1.199-6.345c-0.461,0.041-0.91,0.075-1.35,0.105c-0.441,0.03-0.881,0.075-1.32,0.135
		c-0.16,0.02-0.314,0.045-0.465,0.075c-0.15,0.03-0.305,0.045-0.465,0.045c-0.301,0-0.451-0.13-0.451-0.39
		c0-0.3,0.146-0.485,0.436-0.555c0.291-0.07,0.545-0.125,0.766-0.165c0.52-0.08,1.039-0.155,1.559-0.225
		c0.521-0.07,1.041-0.125,1.561-0.165c0.16-0.7,0.34-1.39,0.541-2.07c0.219-0.7,0.689-1.2,1.41-1.5c0.379-0.16,0.75-0.24,1.109-0.24
		c0.08,0,0.184,0.011,0.314,0.03c0.131,0.02,0.195,0.09,0.195,0.21c0,0.06-0.02,0.13-0.061,0.21
		c-0.199,0.46-0.355,0.995-0.465,1.605c-0.109,0.61-0.215,1.166-0.314,1.665c0.301,0,0.715,0.01,1.244,0.03
		c0.531,0.021,1.105,0.06,1.727,0.12c0.619,0.06,1.244,0.15,1.875,0.27c0.629,0.12,1.199,0.285,1.709,0.495s0.93,0.465,1.26,0.765
		c0.33,0.3,0.496,0.67,0.496,1.11c0,0.4-0.125,0.8-0.375,1.2s-0.58,0.795-0.99,1.185c-0.41,0.39-0.865,0.761-1.365,1.11
		c-0.5,0.35-1.01,0.665-1.529,0.945c-0.521,0.28-1.021,0.521-1.5,0.72c-0.48,0.2-0.891,0.34-1.23,0.42
		C210.502,18.633,211.168,18.818,211.957,19.068z M206.363,22.998c-0.201,1.271-0.301,2.545-0.301,3.825c0,0.2,0,0.399,0,0.6
		c0,0.181,0.01,0.37,0.029,0.57c0.34-0.021,0.801-0.085,1.381-0.195c0.58-0.109,1.205-0.249,1.875-0.42
		c0.67-0.169,1.344-0.38,2.025-0.63c0.68-0.25,1.299-0.529,1.859-0.84s1.016-0.65,1.365-1.02c0.35-0.371,0.525-0.775,0.525-1.216
		c0-0.479-0.15-0.919-0.451-1.319c-0.299-0.4-0.689-0.756-1.17-1.065c-0.479-0.31-1.02-0.58-1.619-0.81
		c-0.6-0.229-1.205-0.43-1.814-0.6c-0.611-0.169-1.186-0.31-1.727-0.42c-0.539-0.11-1-0.195-1.379-0.255
		C206.762,20.463,206.563,21.729,206.363,22.998z M214.762,12.528c-0.279-0.21-0.635-0.39-1.064-0.54
		c-0.43-0.15-0.91-0.27-1.439-0.36c-0.531-0.09-1.051-0.155-1.561-0.195s-0.971-0.07-1.379-0.09c-0.41-0.02-0.727-0.03-0.945-0.03
		c-0.221,1.08-0.42,2.165-0.6,3.255c-0.182,1.09-0.361,2.175-0.541,3.255c0.48-0.12,1.16-0.31,2.041-0.57
		c0.879-0.26,1.758-0.585,2.639-0.975c0.881-0.39,1.645-0.834,2.295-1.335c0.65-0.5,0.975-1.05,0.975-1.65
		C215.182,12.993,215.043,12.738,214.762,12.528z"/>
	<path d="M219.576,23.703c0.25-0.92,0.615-1.779,1.096-2.58c0.48-0.8,1.064-1.475,1.754-2.025c0.691-0.55,1.486-0.825,2.387-0.825
		c0.559,0,1.02,0.13,1.379,0.39c0.359,0.26,0.645,0.59,0.855,0.99c0.209,0.4,0.359,0.84,0.449,1.32s0.135,0.951,0.135,1.41
		c0,0.66-0.059,1.325-0.18,1.995c-0.119,0.671-0.311,1.315-0.57,1.935c-0.26,0.621-0.59,1.201-0.988,1.74
		c-0.4,0.541-0.891,1-1.471,1.381c-0.34,0.219-0.711,0.404-1.109,0.555c-0.4,0.15-0.811,0.225-1.23,0.225
		c-0.541,0-0.996-0.125-1.365-0.375c-0.371-0.25-0.666-0.564-0.885-0.945c-0.221-0.379-0.381-0.81-0.48-1.289
		c-0.1-0.48-0.15-0.94-0.15-1.381C219.201,25.463,219.326,24.623,219.576,23.703z M223.326,20.943c-0.43,0.46-0.789,1.01-1.08,1.651
		c-0.289,0.64-0.51,1.3-0.66,1.979c-0.148,0.681-0.225,1.25-0.225,1.71c0,0.24,0.02,0.506,0.061,0.795
		c0.039,0.29,0.115,0.555,0.225,0.795s0.266,0.445,0.465,0.615s0.451,0.255,0.75,0.255c0.26,0,0.506-0.056,0.734-0.165
		c0.23-0.109,0.445-0.244,0.646-0.405c0.379-0.3,0.705-0.655,0.975-1.065c0.27-0.409,0.49-0.844,0.66-1.305
		c0.17-0.459,0.295-0.935,0.375-1.425c0.08-0.489,0.119-0.964,0.119-1.425c0-0.24-0.02-0.52-0.059-0.84
		c-0.041-0.32-0.121-0.615-0.24-0.885c-0.121-0.271-0.281-0.5-0.48-0.69c-0.201-0.19-0.461-0.285-0.779-0.285
		C224.252,20.253,223.756,20.483,223.326,20.943z"/>
	<path d="M229.672,30.498c-0.1-0.15-0.15-0.325-0.15-0.525c0-1.479,0.154-3,0.465-4.56s0.615-3.06,0.916-4.5
		c0.1-0.46,0.189-0.93,0.27-1.41s0.17-0.95,0.27-1.41c0.08-0.36,0.295-0.69,0.645-0.99s0.715-0.45,1.096-0.45
		c0.34,0,0.574,0.09,0.705,0.27c0.129,0.18,0.195,0.431,0.195,0.75c0,0.521-0.086,1.065-0.256,1.635s-0.344,1.095-0.525,1.575
		c-0.219,0.56-0.389,1.13-0.51,1.71c-0.119,0.58-0.219,1.16-0.299,1.739c0.219-0.319,0.545-0.78,0.975-1.38s0.895-1.189,1.395-1.77
		c0.5-0.581,1.006-1.09,1.516-1.531c0.51-0.439,0.955-0.66,1.334-0.66c0.301,0,0.541,0.11,0.721,0.33s0.314,0.49,0.404,0.81
		s0.146,0.64,0.166,0.96c0.02,0.319,0.029,0.59,0.029,0.809c0,0.701-0.02,1.4-0.059,2.101c-0.041,0.7-0.061,1.4-0.061,2.101
		c0,0.18,0.004,0.375,0.014,0.584c0.012,0.211,0.047,0.406,0.105,0.586c0.061,0.18,0.154,0.33,0.285,0.449
		c0.131,0.121,0.314,0.18,0.555,0.18c0.4,0,0.805-0.154,1.215-0.465c0.41-0.309,0.805-0.68,1.186-1.109s0.721-0.875,1.02-1.335
		c0.301-0.46,0.531-0.851,0.691-1.17c0.078-0.14,0.18-0.3,0.299-0.479c0.121-0.181,0.27-0.271,0.451-0.271
		c0.158,0,0.285,0.065,0.375,0.194c0.09,0.131,0.135,0.266,0.135,0.405c0,0.081-0.025,0.181-0.076,0.3
		c-0.049,0.121-0.094,0.221-0.135,0.301c-0.221,0.46-0.535,0.984-0.945,1.574s-0.879,1.146-1.41,1.666
		c-0.529,0.52-1.09,0.959-1.68,1.319s-1.164,0.54-1.725,0.54c-0.52,0-0.926-0.135-1.215-0.404c-0.291-0.271-0.51-0.605-0.66-1.006
		s-0.24-0.83-0.27-1.29s-0.045-0.88-0.045-1.26c0-0.58,0.02-1.149,0.061-1.71c0.039-0.56,0.059-1.13,0.059-1.71
		c0-0.079-0.014-0.2-0.045-0.36c-0.029-0.16-0.105-0.24-0.225-0.24c-0.1,0-0.221,0.061-0.359,0.181c-0.141,0.12-0.25,0.22-0.33,0.3
		c-0.5,0.48-0.971,1.04-1.41,1.68c-0.441,0.641-0.84,1.25-1.201,1.83c-0.439,0.701-0.84,1.416-1.199,2.145
		c-0.359,0.73-0.711,1.477-1.051,2.236c-0.119,0.239-0.283,0.459-0.494,0.659s-0.455,0.3-0.734,0.3
		C229.932,30.723,229.771,30.648,229.672,30.498z"/>
	<path d="M251.752,19.743c-0.381,0.42-0.791,0.96-1.23,1.62s-0.9,1.385-1.379,2.175c-0.48,0.79-0.926,1.556-1.336,2.295
		c-0.41,0.74-0.77,1.405-1.08,1.995s-0.525,1.016-0.645,1.275c-0.08,0.18-0.176,0.369-0.285,0.569s-0.23,0.39-0.359,0.57
		c-0.131,0.18-0.285,0.33-0.465,0.45c-0.182,0.119-0.381,0.18-0.602,0.18c-0.219,0-0.395-0.064-0.523-0.195
		c-0.131-0.13-0.236-0.285-0.316-0.465s-0.129-0.375-0.148-0.585c-0.021-0.21-0.031-0.395-0.031-0.555
		c0-0.521,0.041-1.035,0.121-1.546c0.078-0.51,0.148-1.023,0.209-1.545c0.121-0.959,0.234-1.909,0.346-2.85
		c0.109-0.939,0.215-1.89,0.314-2.85c0.121-1.08,0.266-2.3,0.436-3.66c0.17-1.36,0.375-2.735,0.615-4.125
		c0.24-1.39,0.529-2.73,0.869-4.02s0.75-2.405,1.23-3.345c0.119-0.24,0.264-0.48,0.436-0.72c0.168-0.24,0.359-0.465,0.568-0.675
		c0.211-0.21,0.445-0.38,0.705-0.51c0.26-0.13,0.531-0.195,0.811-0.195c0.34,0,0.615,0.1,0.826,0.3
		c0.209,0.2,0.375,0.445,0.494,0.735c0.119,0.291,0.199,0.6,0.24,0.93c0.039,0.33,0.061,0.615,0.061,0.855
		c0,2.24-0.336,4.42-1.006,6.54c-0.67,2.12-1.506,4.17-2.506,6.15c-0.238,0.48-0.49,0.95-0.75,1.41c-0.26,0.46-0.51,0.92-0.75,1.38
		c-0.059,0.12-0.135,0.405-0.225,0.854c-0.09,0.451-0.18,0.945-0.27,1.485s-0.17,1.056-0.24,1.546s-0.125,0.834-0.164,1.034
		c0.18-0.399,0.43-0.895,0.75-1.485c0.318-0.59,0.68-1.219,1.08-1.89c0.398-0.67,0.834-1.335,1.305-1.995
		c0.469-0.66,0.949-1.26,1.439-1.8s0.99-0.975,1.5-1.305c0.51-0.33,0.994-0.495,1.455-0.495c0.34,0,0.619,0.09,0.84,0.27
		c0.221,0.18,0.395,0.405,0.525,0.675c0.129,0.27,0.219,0.56,0.27,0.87s0.076,0.605,0.076,0.885c0,1.26-0.096,2.515-0.285,3.765
		c-0.191,1.25-0.285,2.505-0.285,3.766c0,0.14,0.004,0.289,0.014,0.449s0.041,0.305,0.09,0.436c0.051,0.13,0.131,0.24,0.24,0.33
		s0.266,0.135,0.465,0.135c0.42,0,0.865-0.17,1.336-0.51c0.469-0.34,0.924-0.74,1.365-1.201c0.439-0.459,0.85-0.939,1.23-1.439
		c0.379-0.5,0.67-0.91,0.869-1.23c0.08-0.119,0.186-0.273,0.314-0.465c0.131-0.189,0.285-0.285,0.465-0.285
		c0.182,0,0.301,0.061,0.361,0.181c0.059,0.12,0.09,0.261,0.09,0.42c0,0.101-0.021,0.185-0.061,0.255
		c-0.041,0.07-0.08,0.146-0.119,0.225c-0.301,0.581-0.701,1.211-1.201,1.891s-1.061,1.315-1.68,1.904
		c-0.619,0.591-1.285,1.08-1.994,1.471c-0.711,0.391-1.416,0.585-2.115,0.585c-0.42,0-0.736-0.16-0.945-0.479
		c-0.211-0.32-0.365-0.7-0.465-1.141c-0.102-0.439-0.156-0.895-0.166-1.365c-0.01-0.469-0.014-0.844-0.014-1.125
		c0-1.08,0.055-2.16,0.164-3.24s0.215-2.16,0.314-3.239v-0.24c0-0.1-0.01-0.245-0.029-0.435c-0.02-0.19-0.109-0.285-0.27-0.285
		C252.432,19.113,252.131,19.323,251.752,19.743z M249.246,5.463c-0.289,0.6-0.568,1.37-0.84,2.31c-0.27,0.94-0.52,1.976-0.75,3.105
		c-0.229,1.13-0.43,2.22-0.6,3.27c-0.17,1.05-0.311,1.99-0.42,2.82s-0.176,1.415-0.195,1.755c0.461-0.82,0.93-1.77,1.41-2.85
		s0.916-2.2,1.305-3.36c0.391-1.16,0.715-2.31,0.977-3.45c0.26-1.14,0.389-2.17,0.389-3.09c0-0.06,0-0.17,0-0.33
		c0-0.16-0.014-0.32-0.045-0.48c-0.029-0.16-0.064-0.3-0.105-0.42c-0.039-0.12-0.109-0.18-0.209-0.18
		C249.842,4.563,249.537,4.863,249.246,5.463z"/>
	<path d="M261.412,29.688c-0.42-0.229-0.766-0.529-1.035-0.899c-0.271-0.37-0.465-0.8-0.586-1.29c-0.119-0.49-0.18-1.005-0.18-1.545
		c0-0.68,0.129-1.5,0.391-2.46c0.26-0.96,0.629-1.885,1.109-2.775c0.48-0.89,1.055-1.645,1.725-2.265
		c0.67-0.62,1.404-0.93,2.205-0.93c0.541,0,0.955,0.17,1.246,0.51c0.289,0.34,0.434,0.77,0.434,1.29c0,0.5-0.154,1.055-0.465,1.665
		c-0.311,0.609-0.699,1.199-1.17,1.77s-0.975,1.076-1.514,1.516c-0.541,0.439-1.041,0.74-1.5,0.899
		c-0.102,0.46-0.15,0.88-0.15,1.261c0,0.68,0.15,1.215,0.449,1.604c0.301,0.39,0.801,0.585,1.5,0.585
		c0.641,0,1.24-0.125,1.801-0.375c0.559-0.25,1.08-0.57,1.559-0.96c0.48-0.39,0.92-0.835,1.32-1.335s0.75-1,1.051-1.5
		c0.1-0.16,0.219-0.33,0.359-0.51s0.32-0.271,0.541-0.271c0.1,0,0.195,0.03,0.285,0.091c0.09,0.06,0.135,0.14,0.135,0.239
		c0,0.2-0.021,0.36-0.061,0.479c-0.041,0.121-0.109,0.261-0.211,0.42c-0.379,0.681-0.844,1.331-1.395,1.951
		c-0.551,0.619-1.154,1.165-1.814,1.635s-1.371,0.845-2.131,1.125c-0.76,0.279-1.549,0.42-2.369,0.42
		C262.342,30.033,261.832,29.918,261.412,29.688z M263.992,19.578c-0.301,0.43-0.582,0.93-0.842,1.5
		c-0.26,0.57-0.479,1.141-0.658,1.71c-0.182,0.569-0.291,0.985-0.33,1.245c0.318-0.199,0.67-0.465,1.049-0.795
		c0.381-0.33,0.73-0.7,1.051-1.11c0.318-0.409,0.59-0.829,0.811-1.26c0.219-0.43,0.328-0.845,0.328-1.245
		c0-0.16-0.035-0.315-0.104-0.465c-0.07-0.15-0.205-0.225-0.406-0.225C264.592,18.933,264.291,19.148,263.992,19.578z"/>
	<path d="M269.736,22.969c0.129-0.95,0.334-1.855,0.615-2.716c0.16-0.459,0.424-0.82,0.795-1.08c0.369-0.259,0.785-0.39,1.244-0.39
		c0.461,0,0.691,0.22,0.691,0.66c0,0.161-0.025,0.326-0.076,0.495c-0.051,0.17-0.096,0.335-0.135,0.495
		c-0.16,0.5-0.326,1.049-0.494,1.65c-0.172,0.601-0.32,1.215-0.451,1.845c-0.131,0.631-0.24,1.256-0.33,1.875
		c-0.09,0.621-0.135,1.19-0.135,1.711c0,0.199,0.025,0.449,0.076,0.75c0.049,0.299,0.213,0.449,0.494,0.449
		c0.34,0,0.715-0.154,1.125-0.465s0.83-0.709,1.26-1.2c0.43-0.489,0.855-1.034,1.275-1.635s0.811-1.194,1.17-1.785
		c0.359-0.589,0.68-1.135,0.959-1.635c0.281-0.5,0.48-0.899,0.602-1.2c0.078-0.18,0.158-0.385,0.24-0.615
		c0.078-0.23,0.18-0.44,0.299-0.63c0.121-0.189,0.266-0.35,0.436-0.48c0.17-0.13,0.385-0.195,0.645-0.195
		c0.18,0,0.334,0.03,0.465,0.09s0.195,0.2,0.195,0.42c0,0.2-0.035,0.395-0.105,0.585s-0.135,0.375-0.195,0.555
		c-0.16,0.44-0.314,0.94-0.465,1.5c-0.148,0.56-0.279,1.13-0.389,1.709c-0.111,0.581-0.195,1.16-0.256,1.74s-0.09,1.101-0.09,1.561
		c0,0.141,0.01,0.33,0.029,0.57s0.061,0.475,0.121,0.705c0.061,0.229,0.15,0.43,0.27,0.6s0.279,0.255,0.48,0.255
		c0.299,0,0.68-0.205,1.139-0.615c0.461-0.409,0.92-0.89,1.381-1.44c0.459-0.549,0.885-1.094,1.275-1.635
		c0.391-0.539,0.664-0.939,0.824-1.199c0.1-0.141,0.234-0.325,0.406-0.555c0.168-0.23,0.344-0.346,0.523-0.346
		c0.182,0,0.295,0.055,0.346,0.165c0.049,0.11,0.074,0.245,0.074,0.405c0,0.1-0.025,0.205-0.074,0.314
		c-0.051,0.11-0.096,0.215-0.135,0.315c-0.24,0.479-0.6,1.056-1.08,1.725c-0.48,0.671-1.02,1.315-1.619,1.935
		c-0.602,0.621-1.221,1.15-1.861,1.591c-0.641,0.439-1.25,0.659-1.83,0.659c-0.459,0-0.82-0.16-1.08-0.479s-0.459-0.7-0.6-1.14
		s-0.225-0.904-0.254-1.395c-0.031-0.49-0.047-0.896-0.047-1.216c0-0.2,0-0.39,0-0.569c0-0.181,0.021-0.371,0.061-0.57
		c-0.299,0.42-0.664,0.91-1.094,1.47c-0.432,0.56-0.906,1.091-1.426,1.59c-0.52,0.501-1.064,0.925-1.635,1.275
		c-0.57,0.35-1.135,0.524-1.695,0.524c-0.539,0-0.955-0.149-1.244-0.449c-0.291-0.301-0.502-0.665-0.631-1.096
		c-0.131-0.43-0.211-0.889-0.24-1.38c-0.029-0.489-0.045-0.925-0.045-1.305C269.541,24.844,269.605,23.918,269.736,22.969z"/>
	<path d="M288.457,22.053c-0.371-0.3-0.775-0.52-1.217-0.66c-0.16,0.44-0.334,0.9-0.523,1.381c-0.191,0.479-0.406,0.959-0.646,1.439
		c-0.238,0.48-0.5,0.94-0.779,1.381c-0.279,0.439-0.59,0.83-0.93,1.17c-0.1,0.1-0.221,0.199-0.359,0.299
		c-0.141,0.102-0.291,0.15-0.451,0.15c-0.26,0-0.389-0.13-0.389-0.39c0-0.12,0.023-0.235,0.074-0.345
		c0.051-0.11,0.115-0.215,0.195-0.315c0.58-0.84,1.125-1.7,1.635-2.58s0.824-1.83,0.945-2.85c-0.281-0.36-0.48-0.754-0.6-1.185
		c-0.121-0.43-0.182-0.875-0.182-1.335c0-0.24,0.035-0.55,0.105-0.93s0.18-0.75,0.33-1.11c0.15-0.36,0.334-0.669,0.555-0.93
		c0.221-0.26,0.48-0.39,0.781-0.39c0.219,0,0.389,0.095,0.51,0.285c0.119,0.19,0.219,0.41,0.299,0.66
		c0.08,0.25,0.131,0.505,0.15,0.765c0.02,0.26,0.029,0.47,0.029,0.63c0,0.48-0.029,0.96-0.09,1.44
		c0.24,0.36,0.561,0.655,0.961,0.885c0.4,0.23,0.795,0.48,1.186,0.75c0.389,0.27,0.725,0.6,1.004,0.99
		c0.279,0.391,0.42,0.915,0.42,1.575c0,0.341-0.049,0.73-0.15,1.17c-0.16,0.7-0.299,1.4-0.42,2.101
		c-0.119,0.699-0.18,1.41-0.18,2.129c0,0.201,0.025,0.436,0.076,0.705c0.049,0.271,0.215,0.406,0.494,0.406
		c0.34,0,0.734-0.17,1.186-0.511c0.449-0.34,0.895-0.739,1.334-1.2c0.439-0.459,0.85-0.925,1.23-1.395
		c0.379-0.47,0.66-0.845,0.84-1.125c0.1-0.141,0.215-0.295,0.346-0.465c0.129-0.17,0.285-0.256,0.465-0.256s0.295,0.065,0.346,0.195
		c0.049,0.131,0.074,0.275,0.074,0.436c0,0.119-0.025,0.23-0.074,0.33c-0.051,0.1-0.105,0.199-0.166,0.299
		c-0.24,0.381-0.596,0.861-1.064,1.441c-0.471,0.58-0.98,1.139-1.531,1.68c-0.549,0.539-1.119,1.004-1.709,1.395
		s-1.125,0.585-1.605,0.585c-0.5,0-0.891-0.155-1.17-0.465c-0.279-0.311-0.49-0.68-0.629-1.11c-0.141-0.43-0.227-0.885-0.256-1.365
		c-0.029-0.479-0.045-0.899-0.045-1.26c0-0.56,0.025-1.109,0.074-1.65c0.051-0.539,0.076-1.09,0.076-1.649
		C289.012,22.754,288.826,22.354,288.457,22.053z"/>
</g>
</svg>
