<svg xmlns="http://www.w3.org/2000/svg"><symbol viewBox="0 0 40 40" id="shape-icon-arrow-next"><title>icon-arrow-next</title><circle fill="#fff" cx="20.231" cy="20" r="17.588"/><path fill="none" stroke="#CCA12C" stroke-width="3" stroke-miterlimit="10" d="M27.163 20.752L15.55 8.207M27.198 18.62L14.783 30.37"/></symbol><symbol viewBox="0 0 40 40" id="shape-icon-arrow-prev"><title>icon-arrow-prev</title><circle fill="#fff" cx="20.231" cy="20" r="17.588"/><path fill="none" stroke="#CCA12C" stroke-width="3" stroke-miterlimit="10" d="M13.298 20.752L24.913 8.207M13.264 18.62L25.68 30.37"/></symbol><symbol viewBox="0 0 934.3 934.3" id="shape-icon-baby-bed"><title>icon-baby-bed</title><path d="M868.8 220.3c-15.3 0-29.7-3.6-42.5-10v49.5H108v-49.5c-12.8 6.4-27.2 10-42.5 10s-29.7-3.6-42.5-10V845c0 16.6 13.4 30 30 30h25c16.6 0 30-13.4 30-30v-68.7h718.3V845c0 16.6 13.4 30 30 30h25c16.6 0 30-13.4 30-30V210.3c-12.8 6.4-27.2 10-42.5 10zM509.7 344.8H627v233.4H509.7V344.8zm-85 233.4H307.4V344.8h117.3v233.4zM108 344.8h114.4v233.4H108V344.8zm603.9 233.4V344.8h114.4v233.4H711.9zM65.5 59.3C29.3 59.3 0 88.6 0 124.8c0 22.1 11 41.7 27.8 53.5 10.7 7.5 23.7 12 37.7 12 14.1 0 27.1-4.4 37.7-12 16.8-11.9 27.8-31.4 27.8-53.5 0-36.2-29.3-65.5-65.5-65.5zM868.8 59.3c-36.2 0-65.5 29.3-65.5 65.5 0 22.1 11 41.7 27.8 53.5 10.7 7.5 23.7 12 37.7 12s27.1-4.4 37.7-12c16.8-11.9 27.8-31.4 27.8-53.5 0-36.2-29.3-65.5-65.5-65.5z"/></symbol><symbol viewBox="0 0 439.875 439.875" id="shape-icon-bathroom"><title>icon-bathroom</title><path d="M363.375 325.125v47.813h28.687V306h-28.687zM430.312 28.688c-5.288 0-9.562 4.284-9.562 9.562v14.344c0 7.946-2.61 14.344-4.78 14.344h-41.751c-2.2 2.486-4.266 5.604-6.006 9.562-1.205 2.754-2.22 5.958-3.022 9.562-1.108 4.963-1.816 10.69-1.816 17.528v192.847h28.688V86.062h23.906c14.296 0 23.906-13.455 23.906-33.47V38.25c0-5.278-4.275-9.562-9.564-9.562zM19.125 52.594V38.25c0-5.278-4.274-9.562-9.562-9.562S0 32.972 0 38.25v14.344c0 15.95 17.52 33.47 33.47 33.47H47.9c.334-5.624 1.864-12.633 5.278-19.126h-19.71c-5.23 0-14.343-9.114-14.343-14.344zM371.943 57.375H86.063c-10.615 0-17.3 4.227-21.507 9.562-5.28 6.694-6.665 15.07-7.03 19.125-.123 1.3-.152 2.21-.152 2.4v246.225h296.438V103.58c0-6.607.65-12.382 1.73-17.527.736-3.52 1.722-6.665 2.85-9.562 1.416-3.623 3.07-6.798 4.925-9.56 2.62-3.894 5.556-7.088 8.626-9.555zM392.062 57.317v.058h4.78s-1.882-.182-4.78-.058zM86.062 344.25H57.375v66.937h296.438V344.25H86.062z"/></symbol><symbol viewBox="0 0 589.05 589.05" id="shape-icon-bed"><title>icon-bed</title><g id="icon-bed-Layer_1_73_"><path d="M557.175 196.987c-17.85 0-31.875 14.025-31.875 31.875v80.325h-459V165.112c0-17.85-14.025-31.875-33.15-31.875S0 147.263 0 165.112v258.825c0 17.85 14.025 31.875 33.15 31.875s33.15-14.025 33.15-31.875v-36.975h459v36.975c0 17.85 14.025 31.875 31.875 31.875s31.875-14.025 31.875-31.875V228.862c0-17.85-14.025-31.875-31.875-31.875z"/><circle cx="136.425" cy="239.063" r="45.9"/><path d="M238.425 284.963h219.3c22.95 0 40.8-19.125 40.8-40.8 0-22.95-17.85-40.8-40.8-40.8h-219.3c-22.95 0-40.8 19.125-40.8 40.8 0 21.674 19.125 40.8 40.8 40.8z"/></g></symbol><symbol viewBox="0 0 481.823 481.823" id="shape-icon-bike"><title>icon-bike</title><path d="M393.043 206.632c-9.813 0-19.64 1.697-29.208 5.044l-1.996.698-32.148-58.406v-25.365h38.517c7.4 0 13.423-6.022 13.423-13.425s-6.02-13.425-13.424-13.425h-51.04c-7.4 0-13.424 6.022-13.424 13.425 0 1.084.148 2.21.44 3.35l.078.305v25.69H187.152l-9.644-21.476h27.897c7.01 0 12.71-5.703 12.71-12.714 0-7.01-5.7-12.713-12.71-12.713h-95.083c-7.01 0-12.714 5.703-12.714 12.713 0 7.01 5.703 12.714 12.714 12.714h39.322l8.49 19.248-38.15 70.096-2.006-.702c-9.557-3.35-19.38-5.05-29.198-5.05C39.827 206.64 0 246.47 0 295.424c0 48.953 39.827 88.78 88.78 88.78 43.436 0 80.206-31.114 87.434-73.98l.35-2.087h37.788l.724.688c5.776 5.48 13.335 8.5 21.284 8.5 17.056 0 30.932-13.876 30.932-30.932 0-2.946-.422-5.88-1.255-8.72l-.293-.997 51.233-93.08 22.596 41.055-1.652 1.312c-21.39 17-33.656 42.316-33.656 69.462 0 48.952 39.826 88.778 88.78 88.778s88.78-39.826 88.78-88.778c0-48.96-39.828-88.792-88.78-88.792zm-263.203 40.54l2.35 2.22c8.7 8.213 14.88 18.647 17.866 30.177l.81 3.126H110.29l19.55-35.523zm20.216 64.093c-7.254 27.965-32.45 47.496-61.274 47.496-34.934 0-63.354-28.42-63.354-63.353s28.42-63.353 63.354-63.353c5.1 0 10.373.686 15.672 2.04l3.128.8-29.93 54.402c-.076.2-.158.396-.26.59-.207.43-.362.803-.487 1.164-.175.463-.294.838-.382 1.197-.1.373-.17.73-.24 1.193-.084.504-.125.924-.13 1.293l-.005.132c-.012.17-.034.34-.06.51l-.007.056.006.042c.02.144.036.285.045.426.03.504.082.98.146 1.453.054.345.116.73.214 1.115.094.378.208.75.354 1.153.15.45.293.81.464 1.174.156.348.338.66.55 1.023l.05.09c.215.376.407.673.61.943.23.313.48.62.815.994.263.285.534.586.834.86.31.28.638.54.97.803.32.24.675.503 1.03.706l.146.093c.1.067.2.143.302.22l.092.066c.202.063.4.147.598.254.34.166.74.334 1.105.46.46.17.852.292 1.258.397.317.085.647.15 1.12.228.498.084.96.13 1.426.148.136-.008.346.02.565.05l62.086.01-.81 3.13zm62.486-44.608c-3.338 4.023-5.61 8.865-6.574 13.998l-.383 2.04h-29.02l-.35-2.086c-3.638-21.57-15.112-40.982-32.313-54.662l-1.65-1.313 29.182-53.023 42.102 93.848-.994 1.197zm34.79-9.263l-1.94-.592c-2.247-.686-4.595-1.11-6.98-1.268l-1.502-.098-38.342-85.497h96.908l-48.145 87.454zM393.04 358.76c-34.932 0-63.352-28.42-63.352-63.353 0-17.544 7.082-33.887 19.94-46.018l2.35-2.218 29.928 54.367c2.227 4.06 6.5 6.58 11.15 6.58 2.17 0 4.23-.53 6.122-1.576 2.977-1.635 5.133-4.33 6.076-7.593.944-3.263.563-6.704-1.077-9.687l-29.926-54.372 3.126-.8c5.29-1.353 10.564-2.04 15.678-2.04 34.934 0 63.354 28.42 63.354 63.354-.016 34.937-28.442 63.357-63.37 63.357z" id="icon-bike-_x31_9_65_"/></symbol><symbol viewBox="0 0 795.035 795.035" id="shape-icon-books"><title>icon-books</title><path d="M0 647.59c0 49.89 40.588 90.478 90.48 90.478H744.77v-40.212h-41.895V597.322h41.895v-17.594H795.036v-40.212h-30.16V438.99h30.16v-40.212h-32.673V364.413l-49.647-92.992h52.16V217.35l-131.21-160.38H170.737L51.356 245.075c-20.417 16.612-33.76 41.625-33.76 69.935 0 49.58 40.114 89.89 89.593 90.383-33.292 13.372-56.923 45.847-56.923 83.864 0 27.604 12.688 52.046 32.242 68.656C36.394 562.023 0 600.426 0 647.59zm57.806-332.58c0-18.75 10.43-34.946 25.686-43.586H682.77v93.854H108.074c-27.715-.002-50.268-22.558-50.268-50.268zm82.94 123.98H724.664v100.527H140.746c-27.715 0-50.268-22.54-50.268-50.26 0-27.727 22.552-50.266 50.267-50.266zM90.48 597.323h572.188v100.533H90.477c-27.712 0-50.264-22.54-50.264-50.267 0-27.726 22.553-50.266 50.266-50.266z"/></symbol><symbol viewBox="0 0 31.971 31.971" id="shape-icon-child"><title>icon-child</title><path d="M15.986.878c-2.397 0-4.67.545-6.7 1.52l-.3-1.49-1.663.496.672 1.69c-.01.006-.02.01-.03.018L6.074 0 4.31 1.343 6.745 3.93C2.923 6.766.44 11.31.44 16.424c0 8.573 6.974 15.547 15.546 15.547 8.57 0 15.545-6.973 15.545-15.546C31.533 7.852 24.56.878 15.987.878zm0 27.306c-6.484 0-11.758-5.272-11.758-11.76 0-.86.093-1.7.27-2.51h7.507l-.03-3.164 3.236 3.165h12.263c.177.81.27 1.65.27 2.51 0 6.483-5.274 11.76-11.757 11.76z"/><circle cx="11.571" cy="17.667" r="1.69"/><circle cx="21.077" cy="17.667" r="1.69"/><path d="M16.317 24.464c2 0 3.67-1.364 4.197-3.18h-8.396c.53 1.816 2.198 3.18 4.2 3.18z"/></symbol><symbol viewBox="0 0 32 32" id="shape-icon-document"><title>icon-document</title><path d="M18.414 0H0v32h24V5.584L18.414 0zm-.416 2.413L21.586 6h-3.588V2.413zM22 30H2V1.998h14v6h6V30zM4 20h12v2H4zM4 12h16v2H4zM4 16h16v2H4z"/></symbol><symbol viewBox="0 0 20.106 20.106" id="shape-icon-dryer"><title>icon-dryer</title><path d="M0 3.646h2.15v.79H0v-.79zm0-.75h2.15v-.724H0v.725zm0 3.018h2.15V5.19H0v.724zM20.106 18.24c-.042.003-.083.003-.125.003-1.832 0-3.933-1.414-4.85-2.81-.826.126-1.65-.35-1.93-1.17l-.978-2.856c-.126.01-.253.018-.383.018-2.642 0-4.783-2.14-4.783-4.78 0-.144.008-.282.02-.423H3.096v-4.36h8.743c2.64 0 4.782 2.14 4.782 4.782 0 1.223-.463 2.332-1.216 3.18l1.13 3.3c.256.747-.025 1.542-.63 1.985.836 1.18 2.676 2.366 4.17 2.3l.032.83zM13.6 6.645c0-.973-.788-1.762-1.76-1.762-.975 0-1.763.79-1.763 1.762s.788 1.764 1.762 1.764c.972 0 1.76-.79 1.76-1.764z"/></symbol><symbol viewBox="0 0 46.002 46.002" id="shape-icon-food"><title>icon-food</title><path d="M23.038.334c-1.14 0-2.048.924-2.048 2.064v10.66c0 1.46-1.115 2.658-2.605 2.75V2.397c0-1.14-.908-2.064-2.047-2.064-1.14 0-2.048.924-2.048 2.064v13.408c-1.49-.09-2.606-1.288-2.606-2.75V2.4c0-1.14-.908-2.064-2.047-2.064-1.142 0-2.05.924-2.05 2.064v10.66c0 3.494 2.606 6.386 5.983 6.823l-1.357 21.73c-.01.16-.014.35-.004.514.142 2.278 2.103 4.013 4.383 3.87 2.28-.142 4.012-2.104 3.87-4.384L19.1 19.88c3.378-.436 5.984-3.328 5.984-6.822V2.398c.002-1.14-.905-2.064-2.046-2.064zM38.406 41.73L37.52 1.275c0-.455-.228-.875-.62-1.103-.393-.23-.875-.23-1.27-.005-2.56 1.46-6.682 4.332-6.682 7.634v19.08c0 1.326.942 2.43 2.19 2.69l-.754 12.155c-.01.157-.01.34 0 .5.14 2.218 2.044 3.904 4.26 3.767 2.22-.14 3.9-2.048 3.762-4.265z"/></symbol><symbol viewBox="0 0 92.764 92.764" id="shape-icon-internet"><title>icon-internet</title><path d="M69.538 25.82c.15-.805-.264-1.608-1.006-1.95-3.933-1.815-9.204-2.857-14.46-2.857-17.73 0-32.158 14.426-32.158 32.16 0 11.772 7.86 17.933 15.625 17.933 7.015 0 12.666-2.813 17.17-8.572.486 2.078 1.412 3.86 2.754 5.27 2.027 2.13 4.918 3.303 8.14 3.303 12.224 0 24.597-11.09 24.597-32.286C90.2 15.965 74.134 0 51.124 0 23.44 0 2.563 21.922 2.563 50.996c0 24.2 17.08 41.768 40.615 41.768 9.358 0 16.65-1.644 23.644-5.332.793-.42 1.154-1.36.84-2.2l-2.05-5.513c-.183-.487-.567-.872-1.058-1.054-.49-.18-1.033-.135-1.488.117-4.964 2.785-11.354 4.26-18.478 4.26-18.632 0-31.15-13.188-31.15-32.816 0-23.62 15.418-40.762 36.66-40.762 18.028 0 29.23 11.543 29.23 30.125 0 13.384-6.185 21.67-12 21.67-1.115-.036-1.61-.5-1.884-.843-.75-.943-1.786-3.68-.263-11.4L69.54 25.82zm-17.004 5.556c1.515 0 2.97.144 4.347.43l-2.388 12.85c-1.31 7.38-7.656 15.956-13.877 15.956-6.022 0-6.673-5.562-6.673-7.953 0-11.538 8.515-21.284 18.592-21.284z"/></symbol><symbol viewBox="0 0 457.03 457.03" id="shape-icon-link"><title>icon-link</title><path d="M421.512 207.074l-85.795 85.767c-47.352 47.38-124.17 47.38-171.53 0-7.46-7.438-13.295-15.82-18.42-24.464l39.864-39.86c1.896-1.912 4.236-3.007 6.472-4.297 2.756 9.415 7.567 18.33 14.972 25.735 23.648 23.667 62.128 23.634 85.762 0l85.768-85.765c23.666-23.664 23.666-62.135 0-85.78-23.635-23.647-62.105-23.647-85.768 0l-30.5 30.53c-24.75-9.636-51.414-12.227-77.372-8.423l64.99-64.99c47.38-47.37 124.178-47.37 171.558 0 47.357 47.37 47.357 124.18 0 171.547zm-226.804 141.03l-30.52 30.532c-23.647 23.634-62.13 23.634-85.78 0-23.647-23.667-23.647-62.138 0-85.795l85.78-85.766c23.664-23.662 62.12-23.662 85.766 0 7.388 7.39 12.204 16.302 14.986 25.706 2.25-1.307 4.56-2.37 6.454-4.266l39.86-39.845c-5.09-8.68-10.957-17.03-18.42-24.478-47.348-47.37-124.172-47.37-171.543 0L35.527 249.96c-47.366 47.385-47.366 124.172 0 171.553 47.37 47.356 124.177 47.356 171.547 0l65.008-65.003c-25.97 3.826-52.643 1.213-77.372-8.406z"/></symbol><symbol viewBox="0 0 300 40" id="shape-icon-logo"><title>icon-logo</title><path d="M22.3 29.193c-.63-.62-1.146-1.37-1.546-2.25-.4-.88-.705-1.805-.915-2.775-.21-.97-.366-1.805-.466-2.505-.72.1-1.436.216-2.145.345-.71.13-1.426.235-2.146.315-.42.9-.896 1.935-1.425 3.104-.53 1.17-1.147 2.285-1.846 3.346-.7 1.06-1.51 1.95-2.43 2.67-.92.72-1.98 1.08-3.18 1.08-.14 0-.33-.01-.57-.03-.24-.02-.475-.06-.705-.12s-.43-.15-.6-.27c-.17-.12-.256-.28-.256-.48 0-.18.07-.31.21-.39.14-.08.29-.12.45-.12.28 0 .545.045.795.135.25.09.514.135.794.135.78 0 1.564-.39 2.355-1.17.79-.78 1.563-1.785 2.324-3.015.76-1.23 1.495-2.6 2.205-4.11s1.364-2.985 1.964-4.425c.6-1.44 1.13-2.77 1.59-3.99.46-1.22.82-2.15 1.08-2.79.22-.56.39-1.1.51-1.62s.18-1.08.18-1.68c0-.22.105-.425.315-.615s.464-.355.764-.495.6-.25.9-.33c.3-.08.54-.12.72-.12.28 0 .465.14.555.42.09.28.134.53.134.75 0 1.1-.045 2.2-.135 3.3-.09 1.1-.136 2.2-.136 3.3 0 .88.01 1.75.03 2.61.02.86.08 1.73.18 2.61.48-.06.96-.135 1.44-.225s.96-.135 1.44-.135c.14 0 .27.03.39.09s.18.17.18.33c0 .22-.08.39-.24.51-.16.12-.33.21-.51.27-.36.14-.78.23-1.26.27-.48.04-.92.09-1.32.15.02.22.06.55.12.99.06.44.145.92.255 1.44s.24 1.05.39 1.59.324 1.034.524 1.483c.2.45.425.816.675 1.096.25.28.524.42.824.42.5 0 .97-.12 1.41-.36.44-.24.85-.54 1.23-.9s.735-.75 1.065-1.17.624-.81.884-1.17c.1-.1.2-.21.3-.33.1-.12.23-.18.39-.18.1 0 .21.04.33.12.12.08.18.18.18.3 0 .14-.025.27-.075.39-.05.12-.106.24-.166.36-.24.44-.57.94-.99 1.5-.42.56-.885 1.08-1.395 1.56s-1.05.886-1.62 1.216c-.57.33-1.136.495-1.696.495-.92 0-1.694-.31-2.325-.93zm-3.495-12.63c-.02-.36-.03-.74-.03-1.14 0-.4-.05-.77-.15-1.11 0-.02-.01-.055-.03-.105-.02-.05-.05-.075-.09-.075s-.11.11-.21.33c-.1.22-.205.47-.315.75-.11.28-.21.55-.3.81s-.155.44-.195.54c-.28.74-.565 1.475-.855 2.205-.29.73-.605 1.455-.945 2.175.58-.1 1.16-.18 1.74-.24s1.16-.13 1.74-.21c-.14-1.28-.26-2.59-.36-3.93zM37.974 30.498c-.16-.11-.3-.245-.42-.404-.12-.16-.22-.33-.3-.51-.08-.182-.12-.34-.12-.48 0-.3.07-.525.21-.676.14-.15.315-.26.525-.33.21-.07.424-.13.644-.18.22-.05.42-.125.6-.225.44-.28.785-.855 1.035-1.725.25-.87.458-1.916.63-3.136.168-1.22.333-2.54.494-3.96.16-1.42.37-2.815.63-4.185.26-1.37.604-2.645 1.035-3.825.43-1.18.994-2.13 1.694-2.85.34-.34.73-.64 1.17-.9s.9-.39 1.38-.39c.58 0 1.065.165 1.455.495.39.33.714.735.974 1.215.26.48.445 1 .555 1.56.108.56.164 1.07.164 1.53 0 .22-.04.39-.12.51-.08.12-.24.18-.48.18-.28 0-.46-.205-.54-.615-.08-.41-.165-.86-.255-1.35-.09-.49-.236-.94-.436-1.35-.2-.41-.57-.615-1.11-.615-.5 0-.94.405-1.32 1.215s-.725 1.85-1.035 3.12-.586 2.665-.826 4.185c-.24 1.52-.465 2.99-.675 4.41-.21 1.42-.406 2.695-.586 3.825-.18 1.13-.37 1.935-.57 2.415.6 0 1.185.08 1.755.24.57.16 1.134.33 1.694.51s1.125.35 1.695.51 1.154.24 1.754.24c.8 0 1.485-.215 2.055-.645.57-.43 1.064-.9 1.484-1.41s.775-.98 1.065-1.41.544-.645.764-.645c.1 0 .21.04.33.12s.18.18.18.3c0 .14-.025.27-.075.39-.05.12-.106.24-.166.36-.26.48-.575.975-.945 1.484-.372.51-.792.975-1.26 1.395-.47.42-.976.76-1.516 1.022-.54.26-1.11.39-1.71.39-.58 0-1.155-.045-1.725-.135-.57-.09-1.136-.19-1.696-.3-.56-.11-1.125-.21-1.695-.3-.57-.09-1.147-.135-1.726-.135-.68 0-1.335.115-1.965.344-.63.23-1.246.485-1.846.766-.16.08-.3.12-.42.12-.14 0-.29-.055-.45-.164zM67.57 25.413c-.17.24-.306.44-.406.6-.28.38-.62.82-1.02 1.32-.4.5-.835.97-1.305 1.41-.47.44-.97.81-1.5 1.11-.53.3-1.056.45-1.576.45-.5 0-.9-.176-1.2-.526-.3-.35-.53-.77-.69-1.26-.16-.49-.26-1-.3-1.53s-.05-.974-.03-1.335c-.2.3-.455.676-.765 1.125-.31.45-.656.886-1.036 1.306-.38.42-.775.78-1.185 1.08-.41.3-.816.45-1.216.45-.36 0-.66-.11-.9-.33-.24-.22-.425-.49-.555-.81-.13-.32-.222-.66-.27-1.02-.05-.36-.076-.68-.076-.96 0-.78.19-1.67.57-2.67s.885-1.945 1.515-2.836c.63-.89 1.35-1.635 2.16-2.235s1.654-.9 2.534-.9c.22 0 .44.1.66.3.22.2.33.41.33.63 0 .1-.03.175-.09.225s-.13.095-.21.135c-.54.32-1.055.655-1.545 1.005-.49.35-.956.755-1.396 1.215-.78.8-1.4 1.695-1.86 2.685-.46.99-.69 2.056-.69 3.195 0 .12.02.27.06.45.04.18.15.27.33.27.22 0 .47-.135.75-.404.28-.27.57-.61.87-1.02.3-.41.595-.87.885-1.38.29-.51.564-1.007.824-1.486.26-.48.484-.925.675-1.335.19-.41.333-.715.434-.915.1-.22.225-.424.375-.615.15-.19.364-.285.644-.285.16 0 .315.03.465.09.15.06.224.19.224.39 0 .22-.07.51-.21.87-.14.36-.25.65-.33.87-.16.52-.275 1.075-.345 1.665s-.106 1.145-.106 1.665c0 .16.005.4.015.72.01.32.044.645.104.975s.155.62.285.87c.13.25.314.376.554.376.36 0 .76-.16 1.2-.48s.87-.695 1.29-1.125.81-.875 1.17-1.335.63-.83.81-1.11c.1-.16.21-.324.33-.494s.29-.257.51-.257c.32 0 .48.19.48.57 0 .18-.085.39-.255.63zM82.284 28.923c-.14-.38-.25-.864-.33-1.454s-.14-1.236-.18-1.937c-.04-.7-.06-1.38-.06-2.04V20.673c0-.1-.01-.23-.03-.39s-.11-.24-.27-.24c-.2 0-.476.185-.825.555-.35.37-.73.845-1.14 1.425-.41.58-.83 1.22-1.26 1.92-.432.7-.836 1.38-1.216 2.04-.38.66-.71 1.25-.99 1.77s-.47.9-.57 1.14c-.1.22-.235.426-.405.615s-.396.285-.676.285c-.2 0-.35-.064-.45-.195-.1-.13-.15-.285-.15-.465 0-.3.045-.77.135-1.41.09-.64.2-1.365.33-2.175.13-.81.284-1.654.464-2.534.18-.88.36-1.715.54-2.505.18-.79.36-1.486.54-2.086.18-.6.33-1.02.45-1.26.22-.4.56-.7 1.02-.9.46-.2.9-.3 1.32-.3.22 0 .38.065.48.195.1.13.15.304.15.524 0 .2-.04.44-.12.72-.08.28-.18.565-.3.855-.12.29-.24.574-.36.854s-.22.52-.3.72c-.22.54-.4 1.1-.54 1.68-.14.58-.26 1.16-.36 1.74.22-.32.52-.77.9-1.35.38-.58.795-1.15 1.245-1.71.45-.56.914-1.044 1.394-1.455.48-.41.92-.616 1.32-.616.28 0 .5.09.66.27s.285.4.375.66c.09.26.15.53.18.81s.044.52.044.72c0 .58-.01 1.16-.03 1.74-.02.58-.03 1.16-.03 1.74v.96c0 .32.04.63.12.93 0 .02.01.06.03.12.02.06.05.09.09.09.06 0 .135-.075.225-.226.09-.15.153-.254.194-.314.36-.6.745-1.186 1.155-1.755.41-.57.814-1.147 1.214-1.727.24-.34.52-.74.84-1.2.32-.46.665-.9 1.035-1.32.37-.42.77-.78 1.2-1.08.43-.3.874-.45 1.334-.45.32 0 .6.08.84.24.24.16.435.36.585.6.15.24.26.505.33.795.07.29.104.575.104.855 0 1.16-.07 2.315-.21 3.465-.14 1.15-.21 2.306-.21 3.466 0 .14.004.305.015.494.01.19.04.365.09.525.048.16.13.3.24.42s.264.18.464.18c.34 0 .725-.135 1.155-.404.43-.272.854-.597 1.274-.977s.81-.774 1.17-1.185c.36-.41.64-.745.84-1.006.1-.14.23-.305.39-.494s.34-.285.54-.285c.18 0 .295.07.345.21.05.14.074.28.074.42 0 .1-.035.205-.105.315-.07.11-.136.205-.196.285-.3.4-.695.87-1.185 1.41-.49.54-1.03 1.055-1.62 1.545s-1.19.904-1.8 1.244c-.61.34-1.176.51-1.696.51-.5 0-.885-.14-1.155-.42-.27-.28-.476-.63-.616-1.05-.14-.42-.225-.86-.255-1.32-.03-.46-.046-.87-.046-1.23 0-.9.045-1.8.135-2.7.09-.898.134-1.81.134-2.728 0-.08-.005-.19-.015-.33-.01-.14-.03-.275-.06-.406-.03-.13-.082-.245-.15-.345-.07-.1-.166-.15-.286-.15-.24 0-.54.185-.9.555-.36.37-.746.845-1.155 1.425-.41.58-.83 1.225-1.26 1.935-.432.71-.836 1.396-1.216 2.056-.38.66-.715 1.255-1.005 1.784-.29.53-.516.915-.676 1.155-.1.16-.21.29-.33.39-.12.1-.28.15-.48.15-.2 0-.37-.19-.51-.57zM111.49 25.413c-.17.24-.306.44-.406.6-.28.38-.62.82-1.02 1.32-.4.5-.835.97-1.305 1.41-.47.44-.97.81-1.5 1.11-.53.3-1.056.45-1.576.45-.5 0-.9-.176-1.2-.526-.3-.35-.53-.77-.69-1.26-.16-.49-.26-1-.3-1.53s-.05-.974-.03-1.335c-.2.3-.455.676-.765 1.125-.31.45-.656.886-1.036 1.306-.38.42-.775.78-1.185 1.08-.41.3-.816.45-1.216.45-.36 0-.66-.11-.9-.33-.24-.22-.425-.49-.555-.81-.13-.32-.222-.66-.27-1.02-.05-.36-.076-.68-.076-.96 0-.78.19-1.67.57-2.67s.885-1.945 1.515-2.836c.63-.89 1.35-1.635 2.16-2.235s1.654-.9 2.534-.9c.22 0 .44.1.66.3.22.2.33.41.33.63 0 .1-.03.175-.09.225s-.13.095-.21.135c-.54.32-1.055.655-1.545 1.005-.49.35-.956.755-1.396 1.215-.78.8-1.4 1.695-1.86 2.685-.46.99-.69 2.056-.69 3.195 0 .12.02.27.06.45.04.18.15.27.33.27.22 0 .47-.135.75-.404.28-.27.57-.61.87-1.02.3-.41.595-.87.885-1.38.29-.51.564-1.007.824-1.486.26-.48.484-.925.675-1.335.19-.41.333-.715.434-.915.1-.22.225-.424.375-.615.15-.19.364-.285.644-.285.16 0 .315.03.465.09.15.06.224.19.224.39 0 .22-.07.51-.21.87-.14.36-.25.65-.33.87-.16.52-.275 1.075-.345 1.665s-.106 1.145-.106 1.665c0 .16.005.4.015.72.01.32.044.645.104.975s.155.62.285.87c.13.25.314.376.554.376.36 0 .76-.16 1.2-.48s.87-.695 1.29-1.125.81-.875 1.17-1.335.63-.83.81-1.11c.1-.16.21-.324.33-.494s.29-.257.51-.257c.32 0 .48.19.48.57 0 .18-.085.39-.255.63zM113.048 26.793c.01.3.05.6.12.9.07.3.175.56.315.78.14.22.34.33.6.33.4 0 .834-.186 1.305-.556.47-.37.93-.81 1.38-1.32.45-.51.86-1.035 1.23-1.574.37-.54.655-.97.855-1.29l.345-.48c.13-.18.295-.27.495-.27s.315.07.345.21c.03.14.045.29.045.45 0 .1-.03.22-.09.36s-.135.284-.225.434c-.09.15-.18.29-.27.42-.09.13-.165.236-.225.315-.28.4-.64.876-1.08 1.425-.44.55-.925 1.076-1.455 1.575-.53.5-1.075.925-1.635 1.274-.56.35-1.11.525-1.65.525-.6 0-1.075-.185-1.425-.554-.35-.37-.625-.82-.825-1.35-.2-.53-.33-1.09-.39-1.68-.06-.59-.09-1.105-.09-1.546 0-.56.065-1.185.195-1.875s.274-1.294.435-1.815c.18-.54.425-.994.735-1.364.31-.37.785-.555 1.425-.555.46 0 .69.22.69.66 0 .2-.035.436-.105.706-.07.27-.155.55-.255.84l-.3.87c-.1.29-.18.545-.24.764-.18.86-.27 1.75-.27 2.67 0 .183.005.423.015.723zm1.95-11.475c.19.23.285.495.285.795 0 .4-.14.765-.42 1.095-.28.33-.62.495-1.02.495-.32 0-.57-.115-.75-.345-.18-.23-.27-.495-.27-.795 0-.38.135-.74.405-1.08.27-.34.605-.51 1.005-.51.32 0 .575.115.765.345zM122.783 19.803c.24.58.52 1.16.84 1.74.32.58.63 1.166.93 1.755.3.59.55 1.195.75 1.815.2.62.3 1.25.3 1.89 0 .4-.056.8-.165 1.2-.11.4-.285.77-.525 1.11.36.02.78-.136 1.26-.466s.96-.72 1.44-1.17c.48-.45.92-.91 1.32-1.38.4-.47.69-.845.87-1.125.1-.14.22-.305.36-.495.14-.19.31-.285.51-.285.18 0 .3.06.36.18s.09.26.09.42c0 .102-.035.206-.105.316-.07.11-.125.215-.165.314-.56.88-1.15 1.67-1.77 2.37-.62.7-1.295 1.29-2.025 1.77s-1.54.845-2.43 1.095c-.89.25-1.875.375-2.955.375-.58 0-1.205-.06-1.875-.18-.67-.12-1.225-.39-1.665-.81-.1-.1-.18-.2-.24-.3-.06-.1-.09-.22-.09-.36 0-.3.16-.45.48-.45.12 0 .215.02.285.06.07.04.155.09.255.15.34.22.68.37 1.02.45.34.08.71.12 1.11.12.8 0 1.405-.245 1.815-.735.41-.49.615-1.114.615-1.875 0-.46-.065-.95-.195-1.47s-.295-1.04-.495-1.56-.425-1.025-.675-1.516c-.25-.49-.495-.914-.735-1.275-.14.4-.315.847-.525 1.337s-.445.975-.705 1.455c-.26.48-.535.94-.825 1.38-.29.44-.585.81-.885 1.11-.1.1-.215.205-.345.314s-.275.165-.435.165c-.28 0-.42-.14-.42-.42 0-.16.035-.3.105-.42.07-.12.155-.24.255-.36 1.36-1.698 2.38-3.608 3.06-5.73-.18-.52-.27-1.05-.27-1.59 0-.3.05-.65.15-1.05.1-.398.24-.78.42-1.14.18-.36.41-.67.69-.93.28-.26.6-.39.96-.39.18 0 .335.057.465.166.13.11.23.25.3.42.07.17.12.345.15.525.03.18.045.35.045.51 0 .5-.07 1.006-.21 1.516-.14.512-.3.997-.48 1.457zM130.778 23.703c.25-.92.615-1.78 1.095-2.58s1.065-1.475 1.755-2.025c.69-.55 1.485-.825 2.385-.825.56 0 1.02.13 1.38.39.36.26.645.59.855.99.21.4.36.84.45 1.32s.135.95.135 1.41c0 .66-.06 1.325-.18 1.995-.12.67-.31 1.315-.57 1.935-.26.62-.59 1.2-.99 1.74s-.89 1-1.47 1.38c-.34.22-.71.405-1.11.556-.4.15-.81.224-1.23.224-.54 0-.995-.125-1.365-.375s-.666-.565-.885-.946c-.22-.38-.38-.81-.48-1.29-.1-.48-.15-.94-.15-1.38 0-.76.124-1.6.375-2.52zm3.75-2.76c-.43.46-.79 1.01-1.08 1.65-.29.64-.51 1.3-.66 1.98-.15.68-.225 1.25-.225 1.71 0 .24.02.506.06.795.04.29.115.555.225.795s.265.445.465.615c.2.17.45.255.75.255.26 0 .505-.056.735-.165.23-.11.445-.244.645-.405.38-.3.705-.655.975-1.065.27-.41.49-.844.66-1.305.17-.46.295-.935.375-1.425.08-.49.12-.964.12-1.425 0-.24-.02-.52-.06-.84s-.12-.615-.24-.885-.28-.5-.48-.69c-.2-.19-.46-.285-.78-.285-.56 0-1.055.23-1.485.69zM140.873 30.498c-.1-.15-.15-.325-.15-.525 0-1.48.155-3 .465-4.56.31-1.56.615-3.06.915-4.5.1-.46.19-.93.27-1.41.08-.48.17-.95.27-1.41.08-.36.294-.69.645-.99.35-.3.715-.45 1.095-.45.34 0 .575.09.705.27.13.18.195.43.195.75 0 .52-.085 1.065-.255 1.635s-.345 1.095-.525 1.575c-.22.56-.39 1.13-.51 1.71-.12.58-.22 1.16-.3 1.74.22-.32.545-.78.975-1.38.43-.6.895-1.19 1.395-1.77.5-.582 1.005-1.09 1.515-1.532.51-.438.955-.66 1.335-.66.3 0 .54.11.72.33s.315.49.405.81c.09.32.145.64.165.96.02.32.03.59.03.81 0 .7-.02 1.4-.06 2.1-.04.7-.06 1.4-.06 2.102 0 .18.005.375.015.584.01.21.045.406.105.586s.155.33.285.45c.13.12.315.18.554.18.4 0 .806-.155 1.216-.466.41-.31.805-.68 1.185-1.11s.72-.874 1.02-1.334c.3-.46.53-.85.69-1.17.08-.14.18-.3.3-.48s.27-.27.45-.27c.16 0 .286.065.376.194.09.13.134.266.134.405 0 .082-.025.182-.076.3-.05.122-.094.222-.135.302-.22.46-.535.984-.945 1.574s-.88 1.146-1.41 1.666c-.53.52-1.09.96-1.68 1.32s-1.164.54-1.725.54c-.52 0-.925-.136-1.215-.405-.29-.27-.51-.605-.66-1.006-.15-.4-.24-.83-.27-1.29-.03-.46-.045-.88-.045-1.26 0-.58.02-1.148.06-1.71.04-.56.06-1.13.06-1.71 0-.078-.015-.2-.045-.36-.03-.16-.105-.24-.225-.24-.1 0-.22.062-.36.182-.14.12-.25.22-.33.3-.5.48-.97 1.04-1.41 1.68-.44.64-.84 1.25-1.2 1.83-.44.7-.84 1.416-1.2 2.145-.36.73-.71 1.477-1.05 2.236-.12.24-.285.46-.495.66s-.455.3-.735.3c-.22 0-.38-.075-.48-.225zM165.518 30.47c-.07.168-.16.293-.27.374-.11.08-.262.124-.45.135-.19.01-.466.014-.825.014-.16 0-.37-.025-.63-.075-.26-.052-.39-.187-.39-.405 0-1.34.074-2.676.225-4.006s.314-2.655.494-3.976c.28-2.06.59-4.11.93-6.15.34-2.04.74-4.08 1.2-6.12-.28.04-.565.075-.854.105-.29.03-.576.064-.855.104-.16.04-.305.07-.436.09-.13.02-.273.03-.434.03-.32 0-.48-.13-.48-.39 0-.22.14-.39.42-.51.28-.12.605-.21.975-.27.37-.06.736-.1 1.096-.12s.62-.03.78-.03c.04-.2.095-.39.165-.57.067-.18.134-.36.194-.54.14-.38.314-.685.523-.915.21-.23.506-.426.885-.586.38-.16.75-.24 1.11-.24.12 0 .23.04.33.12.1.08.15.19.15.33 0 .04-.02.12-.06.24-.16.32-.275.66-.346 1.02-.07.36-.145.71-.225 1.05 1.52-.02 2.915.16 4.187.54 1.27.38 2.37.955 3.3 1.725s1.655 1.75 2.175 2.94.78 2.584.78 4.184c0 1.26-.29 2.42-.87 3.48-.58 1.06-1.326 2.015-2.234 2.864-.912.85-1.916 1.59-3.016 2.22-1.1.63-2.17 1.155-3.21 1.575-.58.22-1.25.44-2.01.66-.76.22-1.45.33-2.07.33-.1.34-.184.595-.254.766zm2.355-2.972c.64-.19 1.28-.415 1.92-.675.88-.36 1.773-.8 2.684-1.32.91-.52 1.736-1.13 2.477-1.83.738-.7 1.344-1.49 1.814-2.37.47-.88.705-1.85.705-2.91 0-1.26-.24-2.395-.72-3.405s-1.132-1.865-1.95-2.565c-.82-.7-1.77-1.24-2.85-1.62-1.08-.38-2.22-.58-3.422-.6-.737 3.72-1.397 7.49-1.978 11.31-.16 1.06-.31 2.115-.45 3.165-.14 1.05-.21 2.115-.21 3.195.68-.06 1.34-.185 1.98-.375zM180.848 22.97c.13-.95.334-1.856.615-2.717.16-.46.424-.82.795-1.08.37-.26.785-.39 1.244-.39.46 0 .69.22.69.66 0 .16-.024.326-.075.495-.05.17-.096.335-.135.495-.16.5-.326 1.05-.494 1.65-.172.6-.32 1.215-.45 1.845-.132.63-.24 1.256-.33 1.875-.09.62-.136 1.19-.136 1.71 0 .2.025.45.076.75.05.3.213.45.494.45.34 0 .715-.154 1.125-.465s.83-.71 1.26-1.2c.43-.49.855-1.034 1.275-1.635s.81-1.194 1.17-1.785c.36-.59.68-1.135.96-1.635.28-.5.48-.9.6-1.2.08-.18.16-.385.24-.615.08-.23.18-.44.3-.63s.266-.35.436-.48c.17-.13.385-.195.645-.195.18 0 .334.03.465.09s.195.2.195.42c0 .2-.035.395-.105.585s-.135.375-.195.555c-.16.44-.314.94-.465 1.5-.148.56-.28 1.13-.39 1.71-.11.58-.194 1.16-.255 1.74s-.09 1.1-.09 1.56c0 .14.01.33.03.57s.06.475.12.705c.06.23.15.43.27.6s.28.255.48.255c.3 0 .68-.205 1.14-.615.46-.41.92-.89 1.38-1.44.46-.55.885-1.094 1.275-1.635.39-.54.664-.94.824-1.2.1-.14.234-.324.406-.554.168-.23.344-.347.523-.347.183 0 .296.055.347.165.05.11.074.245.074.405 0 .1-.024.205-.073.314-.05.11-.096.215-.135.315-.24.48-.6 1.056-1.08 1.725-.48.67-1.02 1.315-1.62 1.935-.6.62-1.22 1.15-1.86 1.59-.64.44-1.25.66-1.83.66-.46 0-.82-.16-1.08-.48s-.46-.7-.6-1.14-.225-.903-.254-1.394c-.03-.49-.047-.896-.047-1.216v-.57c0-.18.022-.37.062-.57-.3.42-.664.91-1.094 1.47-.432.56-.906 1.092-1.426 1.59-.52.502-1.064.926-1.635 1.276-.57.35-1.135.524-1.695.524-.54 0-.955-.15-1.244-.45-.29-.3-.502-.664-.63-1.095-.132-.43-.212-.89-.24-1.38-.03-.49-.046-.925-.046-1.305 0-.898.065-1.824.196-2.773zM211.957 19.068c.79.25 1.555.57 2.295.96s1.37.855 1.89 1.395c.52.54.78 1.16.78 1.86 0 .68-.2 1.31-.6 1.89-.4.58-.914 1.11-1.545 1.59-.63.48-1.35.9-2.16 1.26s-1.625.665-2.445.915c-.82.25-1.61.44-2.37.57-.76.13-1.41.195-1.95.195-.2.52-.42.845-.658.975-.24.13-.63.195-1.17.195-.162 0-.365-.025-.615-.075-.253-.05-.376-.185-.376-.405 0-.38.014-.76.045-1.14.028-.38.063-.76.103-1.14l.182-1.995c.06-.67.13-1.335.21-1.995.24-2.16.528-4.294.87-6.405.34-2.11.738-4.225 1.2-6.345-.462.04-.91.075-1.35.105-.442.03-.882.075-1.32.135-.16.02-.315.045-.466.075-.15.03-.306.045-.466.045-.3 0-.45-.13-.45-.39 0-.3.145-.485.435-.555.29-.07.544-.125.765-.165.52-.08 1.04-.155 1.56-.225s1.04-.125 1.56-.165c.16-.7.34-1.39.54-2.07.22-.7.69-1.2 1.41-1.5.38-.16.75-.24 1.11-.24.08 0 .184.01.314.03.13.02.194.09.194.21 0 .06-.02.13-.06.21-.2.46-.356.995-.466 1.605-.11.61-.215 1.166-.314 1.665.3 0 .715.01 1.244.03.53.02 1.105.06 1.727.12.62.06 1.244.15 1.875.27.63.12 1.2.285 1.71.495s.93.465 1.26.765c.33.3.495.67.495 1.11 0 .4-.125.8-.375 1.2s-.58.795-.99 1.185c-.41.39-.865.76-1.365 1.11-.5.35-1.01.665-1.53.945-.52.28-1.02.52-1.5.72-.48.2-.89.34-1.23.42.537.12 1.203.305 1.992.555zm-5.594 3.93c-.2 1.27-.3 2.545-.3 3.825v.6c0 .18.01.37.028.57.34-.02.802-.085 1.382-.195.58-.11 1.205-.25 1.875-.42.67-.17 1.344-.38 2.025-.63.68-.25 1.3-.53 1.86-.84s1.015-.65 1.364-1.02c.35-.37.525-.775.525-1.216 0-.48-.15-.92-.45-1.32-.3-.4-.69-.755-1.17-1.064-.48-.31-1.02-.58-1.62-.81-.6-.23-1.204-.43-1.813-.6-.61-.17-1.186-.31-1.727-.42-.54-.11-1-.195-1.38-.255l-.597 3.795zm8.4-10.47c-.28-.21-.636-.39-1.065-.54-.43-.15-.91-.27-1.44-.36-.53-.09-1.05-.155-1.56-.195s-.97-.07-1.38-.09c-.41-.02-.726-.03-.944-.03-.22 1.08-.42 2.165-.6 3.255-.182 1.09-.36 2.175-.54 3.255.48-.12 1.16-.31 2.04-.57.88-.26 1.758-.585 2.64-.975.88-.39 1.644-.834 2.294-1.335.65-.5.975-1.05.975-1.65 0-.3-.14-.555-.42-.765zM219.576 23.703c.25-.92.615-1.78 1.096-2.58.48-.8 1.064-1.475 1.754-2.025.69-.55 1.486-.825 2.387-.825.56 0 1.02.13 1.38.39.358.26.644.59.854.99.21.4.36.84.45 1.32s.134.95.134 1.41c0 .66-.058 1.325-.18 1.995-.118.67-.31 1.315-.57 1.935-.26.62-.59 1.2-.987 1.74-.4.54-.89 1-1.47 1.38-.34.22-.712.405-1.11.556-.4.15-.81.224-1.23.224-.54 0-.996-.125-1.365-.375-.37-.25-.666-.565-.885-.946-.22-.38-.38-.81-.48-1.29-.1-.48-.15-.94-.15-1.38-.002-.76.123-1.6.373-2.52zm3.75-2.76c-.43.46-.79 1.01-1.08 1.65-.29.64-.51 1.3-.66 1.98-.148.68-.225 1.25-.225 1.71 0 .24.02.506.062.795.04.29.115.555.225.795s.266.445.465.615.45.255.75.255c.26 0 .506-.056.734-.165.23-.11.445-.244.646-.405.38-.3.705-.655.975-1.065.27-.41.49-.844.66-1.305.17-.46.295-.935.375-1.425.08-.49.12-.964.12-1.425 0-.24-.02-.52-.06-.84-.04-.32-.12-.615-.24-.885s-.28-.5-.48-.69c-.2-.19-.46-.285-.78-.285-.56 0-1.056.23-1.486.69zM229.672 30.498c-.1-.15-.15-.325-.15-.525 0-1.48.154-3 .465-4.56s.615-3.06.916-4.5c.1-.46.19-.93.27-1.41s.17-.95.27-1.41c.08-.36.295-.69.645-.99s.715-.45 1.096-.45c.34 0 .574.09.705.27.128.18.194.43.194.75 0 .52-.086 1.065-.256 1.635s-.344 1.095-.525 1.575c-.22.56-.39 1.13-.51 1.71-.12.58-.22 1.16-.3 1.74.22-.32.546-.78.976-1.38s.894-1.19 1.394-1.77c.5-.582 1.006-1.09 1.516-1.532.51-.438.955-.66 1.334-.66.3 0 .54.11.72.33s.315.49.405.81.145.64.165.96c.02.32.03.59.03.81 0 .7-.02 1.4-.06 2.1-.04.7-.06 1.4-.06 2.102 0 .18.003.375.013.584.012.21.047.406.105.586.06.18.154.33.285.45.13.12.314.18.555.18.4 0 .805-.155 1.215-.466.41-.31.805-.68 1.186-1.11s.72-.874 1.02-1.334c.3-.46.53-.85.69-1.17.08-.14.18-.3.3-.48s.27-.27.45-.27c.16 0 .286.065.376.194.09.13.135.266.135.405 0 .082-.025.182-.076.3-.05.122-.095.222-.136.302-.22.46-.535.984-.945 1.574s-.88 1.146-1.41 1.666c-.53.52-1.09.96-1.68 1.32s-1.165.54-1.726.54c-.52 0-.926-.136-1.215-.405-.292-.27-.51-.605-.66-1.006s-.24-.83-.27-1.29-.046-.88-.046-1.26c0-.58.02-1.148.06-1.71.04-.56.06-1.13.06-1.71 0-.078-.014-.2-.045-.36-.03-.16-.106-.24-.226-.24-.1 0-.22.062-.36.182-.14.12-.25.22-.33.3-.5.48-.97 1.04-1.41 1.68-.44.64-.84 1.25-1.2 1.83-.44.7-.84 1.416-1.2 2.145-.358.73-.71 1.477-1.05 2.236-.12.24-.283.46-.494.66s-.455.3-.734.3c-.224 0-.385-.075-.484-.225zM251.752 19.743c-.38.42-.79.96-1.23 1.62s-.9 1.385-1.38 2.175c-.48.79-.925 1.556-1.335 2.295-.41.74-.77 1.405-1.08 1.995s-.525 1.016-.645 1.275c-.08.18-.176.37-.285.57s-.23.39-.36.57c-.13.18-.284.33-.464.45-.182.118-.38.18-.602.18-.218 0-.394-.065-.522-.196-.13-.13-.236-.285-.316-.465s-.13-.375-.148-.585c-.02-.21-.03-.395-.03-.555 0-.52.04-1.035.12-1.546.078-.51.148-1.023.21-1.545.12-.958.233-1.908.345-2.85.108-.938.214-1.89.313-2.85.12-1.08.266-2.3.436-3.66.17-1.36.374-2.734.614-4.124.24-1.39.53-2.73.87-4.02s.75-2.405 1.23-3.345c.118-.24.263-.48.435-.72.167-.24.358-.464.567-.674.21-.21.445-.38.705-.51.26-.13.53-.195.81-.195.34 0 .616.1.827.3.208.2.374.446.493.736.12.29.2.6.24.93.04.33.06.615.06.855 0 2.24-.335 4.42-1.005 6.54-.67 2.12-1.506 4.17-2.506 6.15-.238.48-.49.95-.75 1.41-.26.46-.51.92-.75 1.38-.06.12-.135.406-.225.855-.09.45-.18.945-.27 1.485s-.17 1.056-.24 1.546-.125.834-.164 1.034c.18-.4.43-.895.75-1.485.318-.59.68-1.22 1.08-1.89.398-.67.834-1.335 1.305-1.995.47-.66.95-1.26 1.44-1.8s.99-.975 1.5-1.305c.51-.33.993-.495 1.454-.495.34 0 .62.09.84.27.22.18.395.405.525.675s.22.56.27.87.076.605.076.885c0 1.26-.096 2.515-.285 3.765-.19 1.25-.285 2.505-.285 3.766 0 .14.004.29.014.45s.04.305.09.436c.05.13.13.24.24.33s.266.135.465.135c.42 0 .865-.17 1.336-.51.47-.34.924-.74 1.365-1.2.44-.46.85-.94 1.23-1.44s.67-.91.87-1.23c.08-.118.185-.272.313-.464.13-.19.285-.285.465-.285.183 0 .302.062.362.182s.09.26.09.42c0 .1-.02.185-.06.255-.042.07-.08.146-.12.225-.3.58-.7 1.21-1.2 1.89s-1.062 1.316-1.68 1.905c-.62.59-1.286 1.08-1.995 1.47-.71.392-1.416.586-2.115.586-.42 0-.736-.16-.945-.48-.21-.32-.365-.7-.465-1.14-.102-.44-.156-.895-.166-1.365-.01-.47-.014-.844-.014-1.125 0-1.08.055-2.16.164-3.24s.215-2.16.314-3.24v-.24c0-.1-.01-.244-.03-.434-.02-.19-.108-.286-.27-.286-.218 0-.52.21-.898.63zm-2.506-14.28c-.29.6-.568 1.37-.84 2.31-.27.94-.52 1.976-.75 3.105-.23 1.13-.43 2.22-.6 3.27-.17 1.05-.31 1.99-.42 2.82s-.176 1.415-.195 1.755c.462-.82.93-1.77 1.41-2.85s.917-2.2 1.306-3.36c.39-1.16.715-2.31.977-3.45.26-1.14.39-2.17.39-3.09v-.33c0-.16-.015-.32-.046-.48-.03-.16-.064-.3-.105-.42-.04-.12-.11-.18-.21-.18-.32 0-.625.3-.916.9zM261.412 29.688c-.42-.23-.766-.53-1.035-.9-.27-.37-.465-.8-.586-1.29-.118-.49-.18-1.004-.18-1.544 0-.68.13-1.5.392-2.46.26-.96.63-1.885 1.11-2.775.48-.89 1.054-1.646 1.724-2.266.67-.62 1.404-.93 2.205-.93.542 0 .956.17 1.247.51.29.34.434.77.434 1.29 0 .5-.153 1.055-.464 1.665-.31.608-.7 1.198-1.17 1.77s-.975 1.075-1.514 1.515c-.54.44-1.04.74-1.5.9-.102.46-.15.88-.15 1.26 0 .68.15 1.215.45 1.604.3.39.8.584 1.5.584.64 0 1.24-.125 1.8-.375s1.08-.57 1.56-.96.92-.836 1.32-1.336.75-1 1.05-1.5c.1-.16.22-.33.36-.51s.32-.27.54-.27c.1 0 .195.03.285.09.09.06.135.14.135.24 0 .2-.02.36-.06.478-.042.12-.11.26-.212.42-.38.68-.844 1.33-1.395 1.95-.55.62-1.154 1.166-1.814 1.636s-1.37.845-2.13 1.125c-.76.28-1.55.42-2.37.42-.598 0-1.108-.115-1.528-.345zm2.58-10.11c-.3.43-.582.93-.842 1.5s-.48 1.14-.658 1.71c-.182.57-.29.985-.33 1.245.318-.2.67-.465 1.05-.795s.73-.7 1.05-1.11c.318-.41.59-.83.81-1.26.22-.43.33-.845.33-1.245 0-.16-.036-.315-.105-.465-.07-.15-.205-.225-.406-.225-.298 0-.6.215-.898.645zM269.736 22.97c.13-.95.334-1.856.615-2.717.16-.46.425-.82.796-1.08.37-.26.785-.39 1.244-.39.46 0 .69.22.69.66 0 .16-.024.326-.075.495-.05.17-.096.335-.135.495-.16.5-.326 1.05-.494 1.65-.172.6-.32 1.215-.45 1.845-.132.63-.24 1.256-.33 1.875-.09.62-.136 1.19-.136 1.71 0 .2.025.45.076.75.05.3.213.45.494.45.34 0 .715-.154 1.125-.465s.83-.71 1.26-1.2c.43-.49.855-1.034 1.275-1.635s.81-1.194 1.17-1.785c.36-.59.68-1.135.96-1.635.28-.5.48-.9.6-1.2.08-.18.16-.385.24-.615.08-.23.18-.44.3-.63s.266-.35.436-.48c.17-.13.385-.195.645-.195.18 0 .335.03.466.09s.195.2.195.42c0 .2-.034.395-.104.585s-.135.375-.195.555c-.16.44-.313.94-.464 1.5-.148.56-.28 1.13-.39 1.71-.11.58-.194 1.16-.255 1.74s-.09 1.1-.09 1.56c0 .14.01.33.03.57s.06.475.12.705c.062.23.15.43.27.6s.28.255.48.255c.3 0 .68-.205 1.14-.615.46-.41.92-.89 1.38-1.44.46-.55.886-1.094 1.276-1.635.39-.54.664-.94.824-1.2.1-.14.234-.324.406-.554.168-.23.344-.347.523-.347.18 0 .294.055.345.165.05.11.074.245.074.405 0 .1-.026.205-.075.314-.05.11-.096.215-.135.315-.24.48-.6 1.056-1.08 1.725-.48.67-1.02 1.315-1.62 1.935-.6.62-1.22 1.15-1.86 1.59-.64.44-1.25.66-1.83.66-.46 0-.82-.16-1.08-.48s-.46-.7-.6-1.14-.225-.903-.254-1.394c-.03-.49-.047-.896-.047-1.216v-.57c0-.18.02-.37.06-.57-.3.42-.664.91-1.094 1.47-.432.56-.906 1.092-1.426 1.59-.52.502-1.064.926-1.635 1.276-.57.35-1.135.524-1.695.524-.54 0-.955-.15-1.244-.45-.29-.3-.502-.664-.63-1.095-.132-.43-.212-.89-.24-1.38-.03-.49-.046-.925-.046-1.305 0-.898.065-1.824.196-2.773zM288.457 22.053c-.37-.3-.775-.52-1.217-.66-.16.44-.334.9-.523 1.38-.19.48-.406.96-.646 1.44-.237.48-.5.94-.778 1.38-.28.44-.59.83-.93 1.17-.1.1-.22.2-.36.3-.14.102-.29.15-.45.15-.26 0-.39-.13-.39-.39 0-.12.024-.235.075-.345.05-.11.115-.215.195-.315.58-.84 1.125-1.7 1.635-2.58s.824-1.83.945-2.85c-.28-.36-.48-.754-.6-1.185-.12-.43-.182-.875-.182-1.335 0-.24.035-.55.105-.93s.18-.75.33-1.11c.15-.36.334-.67.555-.93.22-.26.48-.39.78-.39.22 0 .39.095.51.285.12.19.22.41.3.66.08.25.13.505.15.765.02.26.03.47.03.63 0 .48-.03.96-.09 1.44.24.36.56.655.96.885.4.23.795.48 1.186.75.39.27.725.6 1.004.99.28.39.42.915.42 1.575 0 .34-.05.73-.15 1.17-.16.7-.3 1.4-.42 2.1-.12.7-.18 1.41-.18 2.13 0 .2.025.436.076.705.05.27.215.406.494.406.34 0 .734-.17 1.186-.51.45-.34.895-.74 1.334-1.2.44-.46.85-.926 1.23-1.396.38-.47.66-.845.84-1.125.1-.14.215-.295.346-.465.13-.17.285-.256.465-.256s.296.065.347.195c.05.13.074.275.074.436 0 .12-.024.23-.073.33-.05.1-.105.2-.166.3-.24.38-.595.86-1.063 1.44-.47.58-.98 1.14-1.53 1.68s-1.12 1.004-1.71 1.395-1.125.585-1.605.585c-.5 0-.89-.155-1.17-.465-.28-.31-.49-.68-.63-1.11-.14-.43-.226-.885-.255-1.365-.03-.48-.045-.9-.045-1.26 0-.56.025-1.11.074-1.65.05-.54.076-1.09.076-1.65 0-.5-.186-.9-.555-1.2z"/></symbol><symbol viewBox="0 0 430.114 430.114" id="shape-icon-map-point"><title>icon-map-point</title><path id="icon-map-point-Facebook_Places" d="M356.208 107.05c-1.53-5.737-4.64-11.85-6.94-17.204C321.746 23.704 261.61 0 213.055 0c-65 0-136.592 43.586-146.15 133.427v18.355c0 .766.264 7.647.64 11.09 5.357 42.815 39.142 88.32 64.374 131.135 27.145 45.873 55.313 91 83.22 136.106 17.208-29.436 34.354-59.26 51.17-87.933 4.583-8.415 9.903-16.825 14.49-24.857 3.06-5.348 8.9-10.696 11.57-15.672 27.145-49.698 70.838-99.78 70.838-149.103v-20.262c0-5.347-6.627-24.08-7-25.234zm-141.963 92.143c-19.107 0-40.02-9.554-50.344-35.94-1.537-4.2-1.413-12.616-1.413-13.387v-11.852c0-33.636 28.56-48.932 53.406-48.932 30.588 0 54.245 24.472 54.245 55.06 0 30.587-25.305 55.05-55.893 55.05z"/></symbol><symbol viewBox="0 0 612 612" id="shape-icon-map"><title>icon-map</title><path d="M516.316 337.52L610.55 531.1c3.83 7.874-.197 14.315-8.953 14.315H10.402c-8.756 0-12.785-6.44-8.952-14.314l94.234-193.58c1.5-3.08 5.528-5.6 8.952-5.6h80.8c2.49 0 5.854 1.56 7.484 3.443 5.482 6.335 11.066 12.524 16.634 18.65 5.288 5.815 10.604 11.706 15.878 17.735h-95.89c-3.426 0-7.455 2.52-8.953 5.6l-62.427 128.24h495.67l-62.42-128.24c-1.5-3.08-5.528-5.6-8.954-5.6h-96.11c5.274-6.03 10.592-11.92 15.88-17.735 5.585-6.144 11.2-12.32 16.695-18.658 1.628-1.878 4.984-3.434 7.47-3.434h80.97c3.424 0 7.452 2.52 8.95 5.6zM444.54 205.228c0 105.776-88.057 125.614-129.47 227.265-3.366 8.26-14.995 8.218-18.36-.04-37.36-91.65-112.64-116.784-127.042-198.432-14.18-80.378 41.47-159.114 122.73-166.795 82.64-7.812 152.143 56.98 152.143 138.003zm-65.426 0c0-40.436-32.78-73.216-73.216-73.216s-73.216 32.78-73.216 73.216c0 40.437 32.78 73.216 73.216 73.216s73.216-32.78 73.216-73.216z"/></symbol><symbol viewBox="0 0 496.304 496.303" id="shape-icon-notice"><title>icon-notice</title><path d="M248.146 0C111.314 0 0 111.32 0 248.152c0 136.83 111.314 248.15 248.146 248.15 136.835 0 248.158-111.32 248.158-248.15S384.98 0 248.146 0zm0 472.093c-123.473 0-223.935-100.46-223.935-223.94S124.674 24.21 248.147 24.21c123.488 0 223.947 100.463 223.947 223.942 0 123.482-100.46 223.94-223.947 223.94zm71.39-88.673v32.852c0 1.383-1.123 2.494-2.482 2.494H196.45c-1.374 0-2.482-1.117-2.482-2.494V383.42c0-1.372 1.114-2.482 2.482-2.482h34.744V205.83h-35.1c-1.376 0-2.47-1.11-2.47-2.473v-33.6c0-1.38 1.1-2.48 2.47-2.48h82.292c1.37 0 2.482 1.106 2.482 2.48v211.18h36.186c1.36 0 2.482 1.11 2.482 2.483zM209.93 105.927c0-20.895 16.93-37.83 37.83-37.83 20.885 0 37.825 16.936 37.825 37.83s-16.94 37.83-37.826 37.83c-20.907 0-37.83-16.935-37.83-37.83z"/></symbol><symbol viewBox="0 0 43 43" id="shape-icon-payment"><title>icon-payment</title><path d="M43 21.5c0 7.438-4.305 13.872-10.545 16.99 4.764-3.82 7.88-10.004 7.88-16.99 0-6.987-3.116-13.17-7.88-16.99C38.695 7.628 43 14.063 43 21.5zm-5 0c0-10.477-8.52-19-19-19-10.477 0-19 8.523-19 19s8.523 19 19 19c10.48 0 19-8.523 19-19zm-5 0c0 7.72-6.277 14-14 14-7.72 0-14-6.28-14-14s6.28-14 14-14 14 6.28 14 14zm-5.285 2.746h-3.65l.025.855c.04 1.247-.23 2.07-.8 2.474-.53.375-1.706.562-3.522.562-2.043 0-3.264-.337-3.668-1.012-.205-.347-.36-1.04-.463-2.078h5.506l.352-2.358H15.51c-.02-.686-.026-1.376-.026-2.08v-.282h6.363l.352-2.36h-6.617c.104-1.17.3-1.928.592-2.275.455-.55 1.717-.828 3.774-.828 1.536 0 2.522.123 2.965.365.655.366.983 1.223.983 2.57v.492h3.65l-.014-.436c-.084-2.51-.547-4.14-1.38-4.888-.907-.815-2.733-1.223-5.476-1.223-3.576 0-5.95.496-7.12 1.49-.976.823-1.548 2.4-1.714 4.732h-1.21l-.352 2.36h1.505c.01.87.024 1.655.057 2.356h-1.21l-.352 2.36h1.728c.22 2.182.576 3.634 1.082 4.355.873 1.234 3.104 1.854 6.7 1.854 3.08 0 5.09-.306 6.025-.915 1.263-.814 1.896-2.626 1.896-5.436l.002-.654z"/></symbol><symbol viewBox="0 0 891.024 891.024" id="shape-icon-phone"><title>icon-phone</title><path d="M2.8 180.875c46.6 134 144.7 286.2 282.9 424.4s290.4 236.3 424.4 282.9c18.2 6.3 38.3 1.8 52-11.8l92.7-92.7 21.6-21.6c19.5-19.5 19.5-51.2 0-70.7l-143.5-143.4c-19.5-19.5-51.2-19.5-70.7 0l-38.9 38.9c-20.2 20.2-52.4 22.2-75 4.6-44.7-34.8-89-73.9-131.9-116.8-42.9-42.9-82-87.2-116.8-131.9-17.6-22.6-15.6-54.7 4.6-75l38.9-38.9c19.5-19.5 19.5-51.2 0-70.7l-143.5-143.5c-19.5-19.5-51.2-19.5-70.7 0l-21.6 21.6-92.7 92.7c-13.6 13.6-18.1 33.7-11.8 51.9z"/></symbol><symbol viewBox="0 0 24 24" id="shape-icon-rando"><title>icon-rando</title><path d="M10.513 2.5c0-1.38 1.12-2.5 2.5-2.5s2.5 1.12 2.5 2.5-1.12 2.5-2.5 2.5-2.5-1.12-2.5-2.5zm-3.2 8.5c.3-.9 1.8-6 1.8-6-.9 0-2.2-.1-3.4.9s-2 2.7-2.2 4c-.2 1.2.7 1.6 1.7 1.9 1 .3 1.9-.1 2.1-.8zM20.41 7.553c-.176-.35-.53-.542-.897-.543V6h-1v1.382l-2.79 1.396-2.49-2.573c-.006-.005-.013-.007-.02-.012-.143-.177-.406-.33-.6-.393l-2.5-.6-1.9 6.5c-.2 1.2-.2 2.1 1 3.1l3.3 2.718V23c0 .553.447 1 1 1 .554 0 1-.447 1-1v-6c0-.266-.104-.52-.293-.707l-.157-.157-2.35-3.036 1.083-4.47 1.998 2.065c.193.2.454.305.72.305.15 0 .305-.035.446-.105l2.553-1.277V24h1V9.118l.447-.224c.495-.247.696-.847.45-1.34zM8.012 14.6l-.5 3.2v.01l-1.93 4.82c-.204.513.045 1.095.558 1.3.123.05.25.07.373.07.397 0 .772-.236.93-.63l1.926-4.815c.064-.104.117-.22.144-.354l.4-1.4c-1.3-1.1-1.9-1.5-1.9-2.2z"/></symbol><symbol viewBox="0 0 106.048 106.048" id="shape-icon-shower"><title>icon-shower</title><path d="M84.838 0h-63.63C9.544 0 0 9.543 0 21.21v63.628c0 11.666 9.543 21.21 21.21 21.21h63.627c11.667 0 21.21-9.544 21.21-21.21v-63.63C106.047 9.544 96.505 0 84.837 0zm-42.09 33.505h4.554v-20.25h11.444v20.25h4.55c8.99 0 16.28 7.285 16.28 16.28h-53.11c0-8.995 7.29-16.28 16.282-16.28zm-18.043 54.48l-.023.053c-.422 1.066-1.437 1.71-2.517 1.71-.33 0-.68-.068-1.002-.198-1.4-.554-2.07-2.133-1.512-3.52.552-1.4 2.158-2.1 3.533-1.534 1.4.55 2.084 2.103 1.522 3.49zm3.743-10.24l-.023.05c-.417 1.063-1.437 1.71-2.517 1.71-.33 0-.68-.062-1.004-.197-1.393-.55-2.066-2.134-1.51-3.52.557-1.4 2.157-2.104 3.537-1.54 1.394.555 2.08 2.108 1.518 3.496zm3.822-10.472l-.016.062c-.344 1.176-1.432 1.926-2.59 1.926-.263 0-.522-.03-.783-.107-1.436-.43-2.246-1.94-1.816-3.376.425-1.44 1.924-2.305 3.39-1.85 1.425.436 2.25 1.913 1.816 3.346zm1.13-8.253c-.33 0-.68-.062-1.003-.196-1.393-.55-2.066-2.134-1.51-3.52.558-1.394 2.168-2.098 3.537-1.533 1.393.555 2.077 2.103 1.515 3.496l-.022.057c-.43 1.05-1.442 1.697-2.52 1.697zm6.93 30.136c-.26 1.295-1.388 2.186-2.65 2.186-.183 0-.36-.01-.537-.057-1.473-.29-2.43-1.715-2.13-3.19.302-1.47 1.734-2.46 3.197-2.153 1.473.295 2.434 1.693 2.136 3.163l-.016.05zm1.724-11.03c-.14 1.404-1.32 2.445-2.695 2.445-.092 0-.185 0-.275-.01-1.49-.15-2.58-1.48-2.43-2.977.15-1.486 1.48-2.626 2.97-2.45 1.495.146 2.587 1.45 2.435 2.94l-.006.054zm1.63-10.51c-.258 1.294-1.387 2.18-2.65 2.18-.18 0-.36-.016-.54-.058-1.47-.29-2.422-1.714-2.127-3.19.298-1.47 1.755-2.474 3.197-2.153 1.47.295 2.43 1.693 2.134 3.17l-.013.05zm1.68-10.776c-.262 1.29-1.39 2.18-2.652 2.18-.182 0-.363-.016-.536-.05-1.476-.292-2.43-1.72-2.133-3.19.297-1.467 1.75-2.466 3.197-2.155 1.476.29 2.434 1.688 2.14 3.16l-.017.055zm10.373 33.238c0 1.502-1.212 2.714-2.714 2.714-1.5 0-2.716-1.212-2.716-2.714 0-1.496 1.215-2.734 2.716-2.734 1.502 0 2.714 1.207 2.714 2.703v.03zm0-11.24c0 1.495-1.212 2.712-2.714 2.712-1.5 0-2.716-1.217-2.716-2.713 0-1.502 1.215-2.75 2.716-2.75 1.502 0 2.714 1.19 2.714 2.692v.057zm0-11.275c0 1.49-1.212 2.714-2.714 2.714-1.5 0-2.716-1.212-2.716-2.714 0-1.5 1.215-2.744 2.716-2.744 1.502 0 2.714 1.185 2.714 2.682v.06zm0-11.282c0 1.497-1.212 2.714-2.714 2.714-1.5 0-2.716-1.217-2.716-2.713s1.215-2.728 2.716-2.728c1.502 0 2.714 1.206 2.714 2.703v.026zm4.95.56c-.3-1.465.644-2.926 2.124-3.21 1.436-.306 2.89.626 3.18 2.097l.017.052c.295 1.47-.658 2.898-2.134 3.194-.17.036-.347.052-.533.052-1.265-.006-2.394-.897-2.652-2.186zm1.678 10.775c-.3-1.47.647-2.926 2.118-3.21 1.455-.3 2.895.632 3.185 2.097l.01.053c.3 1.47-.652 2.904-2.123 3.194-.176.035-.357.05-.538.05-1.275-.004-2.393-.89-2.652-2.185zm1.626 10.512c-.15-1.486.94-2.843 2.435-2.987 1.49-.17 2.817.91 2.962 2.397l.005.052c.15 1.49-.937 2.82-2.43 2.97-.092.012-.185.022-.272.022-1.374-.01-2.554-1.052-2.7-2.455zM68.9 91.29c-.17.04-.353.062-.54.062-1.263 0-2.392-.89-2.65-2.185-.3-1.466.653-2.93 2.123-3.216 1.45-.305 2.89.633 3.19 2.1l.01.056C71.328 89.57 70.37 91 68.9 91.29zm3.748-32.27c-1.076 0-2.092-.646-2.516-1.698-.56-1.393.104-2.993 1.49-3.552 1.39-.57 2.963.098 3.517 1.48l.02.052c.555 1.388-.12 2.973-1.507 3.52-.326.136-.673.198-1.005.198zm3.74 10.242c-1.17 0-2.247-.76-2.595-1.93-.435-1.44.38-2.98 1.808-3.403 1.44-.436 2.942.352 3.377 1.79l.01.053c.436 1.435-.377 2.946-1.81 3.376-.272.08-.53.112-.79.112zm3.75 10.243c-1.078 0-2.104-.647-2.518-1.71-.56-1.387.104-2.992 1.49-3.546 1.39-.576 2.963.087 3.517 1.48l.02.057c.555 1.387-.118 2.972-1.512 3.52-.32.135-.667.198-.998.198zm4.747 10.045c-.326.13-.673.197-1 .197-1.076 0-2.097-.643-2.516-1.71-.556-1.387.103-2.986 1.495-3.54 1.393-.575 2.967.087 3.51 1.476l.022.057c.554 1.376-.12 2.96-1.512 3.52z"/></symbol><symbol viewBox="0 0 31.601 31.601" id="shape-icon-wifi"><title>icon-wifi</title><path d="M20.038 21.822c-2.46-2.283-5.832-2.553-8.53.048-.138.133-.214.212.042.466l4.23 4.146 4.188-4.018c.43-.432.213-.5.07-.642zM26.205 16.74c-5.79-5.706-15.142-5.68-20.896.075-.137.135-.137.356 0 .49l3.002 3.005c.135.135.354.135.49 0 3.854-3.855 10.13-3.857 13.985 0 .133.135.355.135.49 0l3.004-3.004.01-.012c.138-.137.138-.36.003-.492l-.088-.063zM31.5 11.595l-.09-.062c-8.66-8.58-22.683-8.55-31.31.075-.134.135-.134.355.004.494l3.088 3.088c.137.137.356.135.49 0 6.68-6.68 17.547-6.677 24.225 0 .133.135.355.136.49.002l3.088-3.09.013-.013c.135-.137.138-.36.003-.495z"/></symbol><symbol viewBox="0 0 457.03 457.03" id="shape-link23"><title>link23</title><path d="M421.512 207.074l-85.795 85.767c-47.352 47.38-124.17 47.38-171.53 0-7.46-7.438-13.295-15.82-18.42-24.464l39.864-39.86c1.896-1.912 4.236-3.007 6.472-4.297 2.756 9.415 7.567 18.33 14.972 25.735 23.648 23.667 62.128 23.634 85.762 0l85.768-85.765c23.666-23.664 23.666-62.135 0-85.78-23.635-23.647-62.105-23.647-85.768 0l-30.5 30.53c-24.75-9.636-51.414-12.227-77.372-8.423l64.99-64.99c47.38-47.37 124.178-47.37 171.558 0 47.357 47.37 47.357 124.18 0 171.547zm-226.804 141.03l-30.52 30.532c-23.647 23.634-62.13 23.634-85.78 0-23.647-23.667-23.647-62.138 0-85.795l85.78-85.766c23.664-23.662 62.12-23.662 85.766 0 7.388 7.39 12.204 16.302 14.986 25.706 2.25-1.307 4.56-2.37 6.454-4.266l39.86-39.845c-5.09-8.68-10.957-17.03-18.42-24.478-47.348-47.37-124.172-47.37-171.543 0L35.527 249.96c-47.366 47.385-47.366 124.172 0 171.553 47.37 47.356 124.177 47.356 171.547 0l65.008-65.003c-25.97 3.826-52.643 1.213-77.372-8.406z"/></symbol></svg>