<svg xmlns="http://www.w3.org/2000/svg" viewBox="0 0 20.106 20.106" enable-background="new 0 0 20.106 20.106"><path d="M0 3.646h2.15v.79H0v-.79zm0-.75h2.15v-.724H0v.725zm0 3.018h2.15V5.19H0v.724zM20.106 18.24c-.042.003-.083.003-.125.003-1.832 0-3.933-1.414-4.85-2.81-.826.126-1.65-.35-1.93-1.17l-.978-2.856c-.126.01-.253.018-.383.018-2.642 0-4.783-2.14-4.783-4.78 0-.144.008-.282.02-.423H3.096v-4.36h8.743c2.64 0 4.782 2.14 4.782 4.782 0 1.223-.463 2.332-1.216 3.18l1.13 3.3c.256.747-.025 1.542-.63 1.985.836 1.18 2.676 2.366 4.17 2.3l.032.83zM13.6 6.645c0-.973-.788-1.762-1.76-1.762-.975 0-1.763.79-1.763 1.762s.788 1.764 1.762 1.764c.972 0 1.76-.79 1.76-1.764z"/></svg>