<svg xmlns="http://www.w3.org/2000/svg" width="590.325" height="590.325" viewBox="0 0 590.325 590.325"><path d="M359.55 198.9c-17.85 31.875-52.274 45.9-73.95 31.875-22.95-14.025-26.775-49.725-7.65-80.325s52.273-45.9 73.95-31.875c21.675 14.025 25.5 49.725 7.65 80.325zm-192.525 34.425c25.5 6.375 53.55-15.3 63.75-51 10.2-35.7-3.825-68.85-29.325-76.5-25.5-6.375-53.55 15.3-63.75 51-10.2 35.7 3.825 70.125 29.325 76.5zM484.5 367.2c-8.926-24.226-44.625-34.425-77.775-22.95C372.3 357 351.9 387.6 362.1 411.826c8.926 24.225 44.625 34.426 77.775 22.95C474.3 423.3 494.7 392.7 484.5 367.2zm-49.724-71.4c29.324-20.4 40.8-54.825 25.5-76.5-15.3-21.676-52.275-21.676-81.6-1.276-29.326 20.4-40.8 54.825-25.5 76.5 16.574 22.95 52.274 22.95 81.6 1.275zm-318.75-3.825C67.575 344.25 145.35 341.7 198.9 390.15c52.275 48.448 61.2 130.05 109.65 77.774 48.45-52.273 44.626-135.15-7.65-183.6-53.55-48.45-135.15-45.9-184.875 7.65zm474.3 2.55c0 163.198-132.6 295.8-295.8 295.8-163.2 0-294.526-132.6-294.526-295.8C0 131.325 132.6 0 294.525 0c163.2 0 295.8 131.325 295.8 294.525zm-51 0C539.325 160.65 429.675 51 294.525 51S51 160.65 51 294.525c0 135.15 109.65 244.8 244.8 244.8 133.876 0 243.525-109.65 243.525-244.8zM78.16 481.16L483.657 75.665 505.92 97.93 100.426 503.424z"/></svg>