<svg xmlns="http://www.w3.org/2000/svg" width="612" height="612" viewBox="0 0 612 612"><path d="M516.316 337.52L610.55 531.1c3.83 7.874-.197 14.315-8.953 14.315H10.402c-8.756 0-12.785-6.44-8.952-14.314l94.234-193.58c1.5-3.08 5.528-5.6 8.952-5.6h80.8c2.49 0 5.854 1.56 7.484 3.443 5.482 6.335 11.066 12.524 16.634 18.65 5.288 5.815 10.604 11.706 15.878 17.735h-95.89c-3.426 0-7.455 2.52-8.953 5.6l-62.427 128.24h495.67l-62.42-128.24c-1.5-3.08-5.528-5.6-8.954-5.6h-96.11c5.274-6.03 10.592-11.92 15.88-17.735 5.585-6.144 11.2-12.32 16.695-18.658 1.628-1.878 4.984-3.434 7.47-3.434h80.97c3.424 0 7.452 2.52 8.95 5.6zM444.54 205.228c0 105.776-88.057 125.614-129.47 227.265-3.366 8.26-14.995 8.218-18.36-.04-37.36-91.65-112.64-116.784-127.042-198.432-14.18-80.378 41.47-159.114 122.73-166.795 82.64-7.812 152.143 56.98 152.143 138.003zm-65.426 0c0-40.436-32.78-73.216-73.216-73.216s-73.216 32.78-73.216 73.216c0 40.437 32.78 73.216 73.216 73.216s73.216-32.78 73.216-73.216z"/></svg>