<svg xmlns="http://www.w3.org/2000/svg" width="589.05" height="589.05" viewBox="0 0 589.05 589.05"><g id="Layer_1_73_"><path d="M557.175 196.987c-17.85 0-31.875 14.025-31.875 31.875v80.325h-459V165.112c0-17.85-14.025-31.875-33.15-31.875S0 147.263 0 165.112v258.825c0 17.85 14.025 31.875 33.15 31.875s33.15-14.025 33.15-31.875v-36.975h459v36.975c0 17.85 14.025 31.875 31.875 31.875s31.875-14.025 31.875-31.875V228.862c0-17.85-14.025-31.875-31.875-31.875z"/><circle cx="136.425" cy="239.063" r="45.9"/><path d="M238.425 284.963h219.3c22.95 0 40.8-19.125 40.8-40.8 0-22.95-17.85-40.8-40.8-40.8h-219.3c-22.95 0-40.8 19.125-40.8 40.8 0 21.674 19.125 40.8 40.8 40.8z"/></g></svg>