<svg xmlns="http://www.w3.org/2000/svg" width="496.304" height="496.303" viewBox="0 0 496.304 496.303"><path d="M248.146 0C111.314 0 0 111.32 0 248.152c0 136.83 111.314 248.15 248.146 248.15 136.835 0 248.158-111.32 248.158-248.15S384.98 0 248.146 0zm0 472.093c-123.473 0-223.935-100.46-223.935-223.94S124.674 24.21 248.147 24.21c123.488 0 223.947 100.463 223.947 223.942 0 123.482-100.46 223.94-223.947 223.94zm71.39-88.673v32.852c0 1.383-1.123 2.494-2.482 2.494H196.45c-1.374 0-2.482-1.117-2.482-2.494V383.42c0-1.372 1.114-2.482 2.482-2.482h34.744V205.83h-35.1c-1.376 0-2.47-1.11-2.47-2.473v-33.6c0-1.38 1.1-2.48 2.47-2.48h82.292c1.37 0 2.482 1.106 2.482 2.48v211.18h36.186c1.36 0 2.482 1.11 2.482 2.483zM209.93 105.927c0-20.895 16.93-37.83 37.83-37.83 20.885 0 37.825 16.936 37.825 37.83s-16.94 37.83-37.826 37.83c-20.907 0-37.83-16.935-37.83-37.83z"/></svg>