<svg xmlns="http://www.w3.org/2000/svg" width="891.024" height="891.024" viewBox="0 0 891.024 891.024"><path d="M2.8 180.875c46.6 134 144.7 286.2 282.9 424.4s290.4 236.3 424.4 282.9c18.2 6.3 38.3 1.8 52-11.8l92.7-92.7 21.6-21.6c19.5-19.5 19.5-51.2 0-70.7l-143.5-143.4c-19.5-19.5-51.2-19.5-70.7 0l-38.9 38.9c-20.2 20.2-52.4 22.2-75 4.6-44.7-34.8-89-73.9-131.9-116.8-42.9-42.9-82-87.2-116.8-131.9-17.6-22.6-15.6-54.7 4.6-75l38.9-38.9c19.5-19.5 19.5-51.2 0-70.7l-143.5-143.5c-19.5-19.5-51.2-19.5-70.7 0l-21.6 21.6-92.7 92.7c-13.6 13.6-18.1 33.7-11.8 51.9z"/></svg>