<svg xmlns="http://www.w3.org/2000/svg" width="439.875" height="439.875" viewBox="0 0 439.875 439.875"><path d="M363.375 325.125v47.813h28.687V306h-28.687zM430.312 28.688c-5.288 0-9.562 4.284-9.562 9.562v14.344c0 7.946-2.61 14.344-4.78 14.344h-41.751c-2.2 2.486-4.266 5.604-6.006 9.562-1.205 2.754-2.22 5.958-3.022 9.562-1.108 4.963-1.816 10.69-1.816 17.528v192.847h28.688V86.062h23.906c14.296 0 23.906-13.455 23.906-33.47V38.25c0-5.278-4.275-9.562-9.564-9.562zM19.125 52.594V38.25c0-5.278-4.274-9.562-9.562-9.562S0 32.972 0 38.25v14.344c0 15.95 17.52 33.47 33.47 33.47H47.9c.334-5.624 1.864-12.633 5.278-19.126h-19.71c-5.23 0-14.343-9.114-14.343-14.344zM371.943 57.375H86.063c-10.615 0-17.3 4.227-21.507 9.562-5.28 6.694-6.665 15.07-7.03 19.125-.123 1.3-.152 2.21-.152 2.4v246.225h296.438V103.58c0-6.607.65-12.382 1.73-17.527.736-3.52 1.722-6.665 2.85-9.562 1.416-3.623 3.07-6.798 4.925-9.56 2.62-3.894 5.556-7.088 8.626-9.555zM392.062 57.317v.058h4.78s-1.882-.182-4.78-.058zM86.062 344.25H57.375v66.937h296.438V344.25H86.062z"/></svg>