<svg xmlns="http://www.w3.org/2000/svg" width="59.166" height="59.166" viewBox="0 0 59.166 59.166"><path d="M29.583 59.166c16.338 0 29.583-13.245 29.583-29.583S45.92 0 29.583 0 0 13.244 0 29.583C0 45.92 13.245 59.166 29.583 59.166zm0-54.167C43.14 5 54.166 16.026 54.166 29.58c0 5.674-1.938 10.902-5.18 15.066L37.98 33.678h5.687V25.11H29.39L14.457 10.225C18.632 6.955 23.882 5 29.583 5zm-19.367 9.47L20.89 25.112H8v8.565h21.483l15.274 15.228c-4.182 3.292-9.45 5.263-15.173 5.263C16.028 54.166 5 43.138 5 29.583c0-5.696 1.952-10.94 5.216-15.113zM45 25.112h2.667v8.565H45zM49 25.112h2.667v8.565H49zM37.494 16.204s10.006-.04 12.173 6.36c0 0-.5-10.06-12.833-9.874s-11.5-5.733-11.5-5.733-3.346 7.582 12.16 9.247zM46.833 24.298s-.41-7.038-10.49-6.908c-10.08.13-9.398-4.01-9.398-4.01s-2.734 5.304 9.94 6.47c0-.002 8.177-.03 9.948 4.448z"/></svg>