<svg xmlns="http://www.w3.org/2000/svg" width="92.764" height="92.764" viewBox="0 0 92.764 92.764"><path d="M69.538 25.82c.15-.805-.264-1.608-1.006-1.95-3.933-1.815-9.204-2.857-14.46-2.857-17.73 0-32.158 14.426-32.158 32.16 0 11.772 7.86 17.933 15.625 17.933 7.015 0 12.666-2.813 17.17-8.572.486 2.078 1.412 3.86 2.754 5.27 2.027 2.13 4.918 3.303 8.14 3.303 12.224 0 24.597-11.09 24.597-32.286C90.2 15.965 74.134 0 51.124 0 23.44 0 2.563 21.922 2.563 50.996c0 24.2 17.08 41.768 40.615 41.768 9.358 0 16.65-1.644 23.644-5.332.793-.42 1.154-1.36.84-2.2l-2.05-5.513c-.183-.487-.567-.872-1.058-1.054-.49-.18-1.033-.135-1.488.117-4.964 2.785-11.354 4.26-18.478 4.26-18.632 0-31.15-13.188-31.15-32.816 0-23.62 15.418-40.762 36.66-40.762 18.028 0 29.23 11.543 29.23 30.125 0 13.384-6.185 21.67-12 21.67-1.115-.036-1.61-.5-1.884-.843-.75-.943-1.786-3.68-.263-11.4L69.54 25.82zm-17.004 5.556c1.515 0 2.97.144 4.347.43l-2.388 12.85c-1.31 7.38-7.656 15.956-13.877 15.956-6.022 0-6.673-5.562-6.673-7.953 0-11.538 8.515-21.284 18.592-21.284z"/></svg>