<svg xmlns="http://www.w3.org/2000/svg" viewBox="0 0 313.725 313.725" enable-background="new 0 0 313.725 313.725"><path d="M218.992 133.607c1.628.715 3.265 1.418 4.888 2.123 4.772 2.074 9.742 3.04 14.948 2.73 8.855-.515 18.07-5.215 18.913-15.825.78-9.742-22.825-17.34-24.892-19.288-6.124-5.762-8.174-12.512-15.047-17.402-1.194-.852-2.405-1.71-3.68-2.44-.766-.426-1.015-.926-.927-1.754.292-2.842.58-5.68.804-8.52.407-5.095-1.062-9.73-5.148-12.734-1.648-1.206-9.743-5.133-13.273 8.288-.767 2.922-1.805 5.827-3.195 8.498-5.094 9.783-11.558 18.72-17.748 27.828-2.822 4.156-5.643 8.303-8.457 12.45l43.304 24.658s8.345-9.125 9.512-8.61zM156.862 0C70.368 0 0 70.368 0 156.862s70.368 156.862 156.862 156.862 156.862-70.368 156.862-156.862S243.356 0 156.862 0zM290 156.862c0 32.443-11.67 62.21-31.027 85.333l-51.826-51.824v-8.426c.042-.23.072-.47.072-.712V149.92l-46.12-26.444h-20.85l-68.724-68.72c23.124-19.36 52.89-31.03 85.336-31.03C230.274 23.725 290 83.45 290 156.86zm-266.275 0c0-32.443 11.67-62.21 31.027-85.332l51.947 51.945h-6.282l-18.846-15.14c-4.264-3.426-10.497-2.746-13.92 1.517-3.425 4.263-2.745 10.495 1.518 13.92l19.234 15.453v42.007c0 .23.03.456.068.677l-16.937 32.54c-2.524 4.852-.64 10.83 4.212 13.355 1.46.76 3.022 1.12 4.563 1.12 3.575 0 7.027-1.942 8.79-5.332l17.04-32.74 19.066 33.11c1.832 3.182 5.164 4.96 8.59 4.96 1.675 0 3.375-.425 4.93-1.32 4.74-2.73 6.37-8.783 3.64-13.52l-16.633-28.886h42.69l18.923 18.923v14.902c0 5.468 4.433 9.9 9.9 9.9 4.03 0 7.49-2.41 9.037-5.866l35.915 35.914c-23.125 19.358-52.89 31.03-85.336 31.03-73.412 0-133.137-59.726-133.137-133.138z"/></svg>