<svg xmlns="http://www.w3.org/2000/svg" width="31.971" height="31.971" viewBox="0 0 31.971 31.971"><path d="M15.986.878c-2.397 0-4.67.545-6.7 1.52l-.3-1.49-1.663.496.672 1.69c-.01.006-.02.01-.03.018L6.074 0 4.31 1.343 6.745 3.93C2.923 6.766.44 11.31.44 16.424c0 8.573 6.974 15.547 15.546 15.547 8.57 0 15.545-6.973 15.545-15.546C31.533 7.852 24.56.878 15.987.878zm0 27.306c-6.484 0-11.758-5.272-11.758-11.76 0-.86.093-1.7.27-2.51h7.507l-.03-3.164 3.236 3.165h12.263c.177.81.27 1.65.27 2.51 0 6.483-5.274 11.76-11.757 11.76z"/><circle cx="11.571" cy="17.667" r="1.69"/><circle cx="21.077" cy="17.667" r="1.69"/><path d="M16.317 24.464c2 0 3.67-1.364 4.197-3.18h-8.396c.53 1.816 2.198 3.18 4.2 3.18z"/></svg>