<svg xmlns="http://www.w3.org/2000/svg" viewBox="0 0 31.601 31.601" enable-background="new 0 0 31.601 31.601"><path d="M20.038 21.822c-2.46-2.283-5.832-2.553-8.53.048-.138.133-.214.212.042.466l4.23 4.146 4.188-4.018c.43-.432.213-.5.07-.642zM26.205 16.74c-5.79-5.706-15.142-5.68-20.896.075-.137.135-.137.356 0 .49l3.002 3.005c.135.135.354.135.49 0 3.854-3.855 10.13-3.857 13.985 0 .133.135.355.135.49 0l3.004-3.004.01-.012c.138-.137.138-.36.003-.492l-.088-.063zM31.5 11.595l-.09-.062c-8.66-8.58-22.683-8.55-31.31.075-.134.135-.134.355.004.494l3.088 3.088c.137.137.356.135.49 0 6.68-6.68 17.547-6.677 24.225 0 .133.135.355.136.49.002l3.088-3.09.013-.013c.135-.137.138-.36.003-.495z"/></svg>