<svg xmlns="http://www.w3.org/2000/svg" width="934.3" height="934.3" viewBox="0 0 934.3 934.3"><path d="M868.8 220.3c-15.3 0-29.7-3.6-42.5-10v49.5H108v-49.5c-12.8 6.4-27.2 10-42.5 10s-29.7-3.6-42.5-10V845c0 16.6 13.4 30 30 30h25c16.6 0 30-13.4 30-30v-68.7h718.3V845c0 16.6 13.4 30 30 30h25c16.6 0 30-13.4 30-30V210.3c-12.8 6.4-27.2 10-42.5 10zM509.7 344.8H627v233.4H509.7V344.8zm-85 233.4H307.4V344.8h117.3v233.4zM108 344.8h114.4v233.4H108V344.8zm603.9 233.4V344.8h114.4v233.4H711.9zM65.5 59.3C29.3 59.3 0 88.6 0 124.8c0 22.1 11 41.7 27.8 53.5 10.7 7.5 23.7 12 37.7 12 14.1 0 27.1-4.4 37.7-12 16.8-11.9 27.8-31.4 27.8-53.5 0-36.2-29.3-65.5-65.5-65.5zM868.8 59.3c-36.2 0-65.5 29.3-65.5 65.5 0 22.1 11 41.7 27.8 53.5 10.7 7.5 23.7 12 37.7 12s27.1-4.4 37.7-12c16.8-11.9 27.8-31.4 27.8-53.5 0-36.2-29.3-65.5-65.5-65.5z"/></svg>