<svg xmlns="http://www.w3.org/2000/svg" width="46.002" height="46.002" viewBox="0 0 46.002 46.002"><path d="M23.038.334c-1.14 0-2.048.924-2.048 2.064v10.66c0 1.46-1.115 2.658-2.605 2.75V2.397c0-1.14-.908-2.064-2.047-2.064-1.14 0-2.048.924-2.048 2.064v13.408c-1.49-.09-2.606-1.288-2.606-2.75V2.4c0-1.14-.908-2.064-2.047-2.064-1.142 0-2.05.924-2.05 2.064v10.66c0 3.494 2.606 6.386 5.983 6.823l-1.357 21.73c-.01.16-.014.35-.004.514.142 2.278 2.103 4.013 4.383 3.87 2.28-.142 4.012-2.104 3.87-4.384L19.1 19.88c3.378-.436 5.984-3.328 5.984-6.822V2.398c.002-1.14-.905-2.064-2.046-2.064zM38.406 41.73L37.52 1.275c0-.455-.228-.875-.62-1.103-.393-.23-.875-.23-1.27-.005-2.56 1.46-6.682 4.332-6.682 7.634v19.08c0 1.326.942 2.43 2.19 2.69l-.754 12.155c-.01.157-.01.34 0 .5.14 2.218 2.044 3.904 4.26 3.767 2.22-.14 3.9-2.048 3.762-4.265z"/></svg>