<svg xmlns="http://www.w3.org/2000/svg" width="43" height="43" viewBox="0 0 43 43"><path d="M43 21.5c0 7.438-4.305 13.872-10.545 16.99 4.764-3.82 7.88-10.004 7.88-16.99 0-6.987-3.116-13.17-7.88-16.99C38.695 7.628 43 14.063 43 21.5zm-5 0c0-10.477-8.52-19-19-19-10.477 0-19 8.523-19 19s8.523 19 19 19c10.48 0 19-8.523 19-19zm-5 0c0 7.72-6.277 14-14 14-7.72 0-14-6.28-14-14s6.28-14 14-14 14 6.28 14 14zm-5.285 2.746h-3.65l.025.855c.04 1.247-.23 2.07-.8 2.474-.53.375-1.706.562-3.522.562-2.043 0-3.264-.337-3.668-1.012-.205-.347-.36-1.04-.463-2.078h5.506l.352-2.358H15.51c-.02-.686-.026-1.376-.026-2.08v-.282h6.363l.352-2.36h-6.617c.104-1.17.3-1.928.592-2.275.455-.55 1.717-.828 3.774-.828 1.536 0 2.522.123 2.965.365.655.366.983 1.223.983 2.57v.492h3.65l-.014-.436c-.084-2.51-.547-4.14-1.38-4.888-.907-.815-2.733-1.223-5.476-1.223-3.576 0-5.95.496-7.12 1.49-.976.823-1.548 2.4-1.714 4.732h-1.21l-.352 2.36h1.505c.01.87.024 1.655.057 2.356h-1.21l-.352 2.36h1.728c.22 2.182.576 3.634 1.082 4.355.873 1.234 3.104 1.854 6.7 1.854 3.08 0 5.09-.306 6.025-.915 1.263-.814 1.896-2.626 1.896-5.436l.002-.654z"/></svg>