<svg xmlns="http://www.w3.org/2000/svg" width="481.823" height="481.823" viewBox="0 0 481.823 481.823"><path d="M393.043 206.632c-9.813 0-19.64 1.697-29.208 5.044l-1.996.698-32.148-58.406v-25.365h38.517c7.4 0 13.423-6.022 13.423-13.425s-6.02-13.425-13.424-13.425h-51.04c-7.4 0-13.424 6.022-13.424 13.425 0 1.084.148 2.21.44 3.35l.078.305v25.69H187.152l-9.644-21.476h27.897c7.01 0 12.71-5.703 12.71-12.714 0-7.01-5.7-12.713-12.71-12.713h-95.083c-7.01 0-12.714 5.703-12.714 12.713 0 7.01 5.703 12.714 12.714 12.714h39.322l8.49 19.248-38.15 70.096-2.006-.702c-9.557-3.35-19.38-5.05-29.198-5.05C39.827 206.64 0 246.47 0 295.424c0 48.953 39.827 88.78 88.78 88.78 43.436 0 80.206-31.114 87.434-73.98l.35-2.087h37.788l.724.688c5.776 5.48 13.335 8.5 21.284 8.5 17.056 0 30.932-13.876 30.932-30.932 0-2.946-.422-5.88-1.255-8.72l-.293-.997 51.233-93.08 22.596 41.055-1.652 1.312c-21.39 17-33.656 42.316-33.656 69.462 0 48.952 39.826 88.778 88.78 88.778s88.78-39.826 88.78-88.778c0-48.96-39.828-88.792-88.78-88.792zm-263.203 40.54l2.35 2.22c8.7 8.213 14.88 18.647 17.866 30.177l.81 3.126H110.29l19.55-35.523zm20.216 64.093c-7.254 27.965-32.45 47.496-61.274 47.496-34.934 0-63.354-28.42-63.354-63.353s28.42-63.353 63.354-63.353c5.1 0 10.373.686 15.672 2.04l3.128.8-29.93 54.402c-.076.2-.158.396-.26.59-.207.43-.362.803-.487 1.164-.175.463-.294.838-.382 1.197-.1.373-.17.73-.24 1.193-.084.504-.125.924-.13 1.293l-.005.132c-.012.17-.034.34-.06.51l-.007.056.006.042c.02.144.036.285.045.426.03.504.082.98.146 1.453.054.345.116.73.214 1.115.094.378.208.75.354 1.153.15.45.293.81.464 1.174.156.348.338.66.55 1.023l.05.09c.215.376.407.673.61.943.23.313.48.62.815.994.263.285.534.586.834.86.31.28.638.54.97.803.32.24.675.503 1.03.706l.146.093c.1.067.2.143.302.22l.092.066c.202.063.4.147.598.254.34.166.74.334 1.105.46.46.17.852.292 1.258.397.317.085.647.15 1.12.228.498.084.96.13 1.426.148.136-.008.346.02.565.05l62.086.01-.81 3.13zm62.486-44.608c-3.338 4.023-5.61 8.865-6.574 13.998l-.383 2.04h-29.02l-.35-2.086c-3.638-21.57-15.112-40.982-32.313-54.662l-1.65-1.313 29.182-53.023 42.102 93.848-.994 1.197zm34.79-9.263l-1.94-.592c-2.247-.686-4.595-1.11-6.98-1.268l-1.502-.098-38.342-85.497h96.908l-48.145 87.454zM393.04 358.76c-34.932 0-63.352-28.42-63.352-63.353 0-17.544 7.082-33.887 19.94-46.018l2.35-2.218 29.928 54.367c2.227 4.06 6.5 6.58 11.15 6.58 2.17 0 4.23-.53 6.122-1.576 2.977-1.635 5.133-4.33 6.076-7.593.944-3.263.563-6.704-1.077-9.687l-29.926-54.372 3.126-.8c5.29-1.353 10.564-2.04 15.678-2.04 34.934 0 63.354 28.42 63.354 63.354-.016 34.937-28.442 63.357-63.37 63.357z" id="_x31_9_65_"/></svg>