<svg xmlns="http://www.w3.org/2000/svg" width="24" height="24" viewBox="0 0 24 24"><path d="M10.513 2.5c0-1.38 1.12-2.5 2.5-2.5s2.5 1.12 2.5 2.5-1.12 2.5-2.5 2.5-2.5-1.12-2.5-2.5zm-3.2 8.5c.3-.9 1.8-6 1.8-6-.9 0-2.2-.1-3.4.9s-2 2.7-2.2 4c-.2 1.2.7 1.6 1.7 1.9 1 .3 1.9-.1 2.1-.8zM20.41 7.553c-.176-.35-.53-.542-.897-.543V6h-1v1.382l-2.79 1.396-2.49-2.573c-.006-.005-.013-.007-.02-.012-.143-.177-.406-.33-.6-.393l-2.5-.6-1.9 6.5c-.2 1.2-.2 2.1 1 3.1l3.3 2.718V23c0 .553.447 1 1 1 .554 0 1-.447 1-1v-6c0-.266-.104-.52-.293-.707l-.157-.157-2.35-3.036 1.083-4.47 1.998 2.065c.193.2.454.305.72.305.15 0 .305-.035.446-.105l2.553-1.277V24h1V9.118l.447-.224c.495-.247.696-.847.45-1.34zM8.012 14.6l-.5 3.2v.01l-1.93 4.82c-.204.513.045 1.095.558 1.3.123.05.25.07.373.07.397 0 .772-.236.93-.63l1.926-4.815c.064-.104.117-.22.144-.354l.4-1.4c-1.3-1.1-1.9-1.5-1.9-2.2z"/></svg>