<?xml version="1.0" encoding="iso-8859-1"?>
<!-- Generator: Adobe Illustrator 16.0.0, SVG Export Plug-In . SVG Version: 6.00 Build 0)  -->
<!DOCTYPE svg PUBLIC "-//W3C//DTD SVG 1.1//EN" "http://www.w3.org/Graphics/SVG/1.1/DTD/svg11.dtd">
<svg version="1.1" id="Capa_1" xmlns="http://www.w3.org/2000/svg" xmlns:xlink="http://www.w3.org/1999/xlink" x="0px" y="0px"
	 width="934.3px" height="934.3px" viewBox="0 0 934.3 934.3" style="enable-background:new 0 0 934.3 934.3;" xml:space="preserve"
	>
<g>
	<g>
		<path d="M868.8,220.3c-15.3,0-29.7-3.6-42.5-10v49.5H108v-49.5c-12.8,6.4-27.2,10-42.5,10c-15.3,0-29.7-3.6-42.5-10V845
			c0,16.6,13.4,30,30,30h25c16.6,0,30-13.4,30-30v-68.7h718.3V845c0,16.6,13.4,30,30,30h25c16.6,0,30-13.4,30-30V210.3
			C898.5,216.7,884.1,220.3,868.8,220.3z M509.7,344.8H627v233.4H509.7V344.8z M424.7,578.2H307.399V344.8H424.7V578.2L424.7,578.2z
			 M108,344.8h114.4v233.4H108V344.8z M711.899,578.2V344.8h114.4v233.4H711.899z"/>
		<g>
			<path d="M65.5,59.3C29.3,59.3,0,88.6,0,124.8c0,22.1,11,41.7,27.8,53.5c10.7,7.5,23.7,12,37.7,12c14.1,0,27.1-4.4,37.7-12
				c16.8-11.9,27.8-31.4,27.8-53.5C131,88.6,101.7,59.3,65.5,59.3z"/>
			<path d="M868.8,59.3c-36.2,0-65.5,29.3-65.5,65.5c0,22.1,11,41.7,27.8,53.5c10.7,7.5,23.7,12,37.7,12s27.1-4.4,37.7-12
				c16.8-11.9,27.8-31.4,27.8-53.5C934.3,88.6,905,59.3,868.8,59.3z"/>
		</g>
	</g>
</g>
<g>
</g>
<g>
</g>
<g>
</g>
<g>
</g>
<g>
</g>
<g>
</g>
<g>
</g>
<g>
</g>
<g>
</g>
<g>
</g>
<g>
</g>
<g>
</g>
<g>
</g>
<g>
</g>
<g>
</g>
</svg>
