<?xml version="1.0" encoding="iso-8859-1"?>
<!-- Generator: Adobe Illustrator 16.0.0, SVG Export Plug-In . SVG Version: 6.00 Build 0)  -->
<!DOCTYPE svg PUBLIC "-//W3C//DTD SVG 1.1//EN" "http://www.w3.org/Graphics/SVG/1.1/DTD/svg11.dtd">
<svg version="1.1" id="Capa_1" xmlns="http://www.w3.org/2000/svg" xmlns:xlink="http://www.w3.org/1999/xlink" x="0px" y="0px"
	 width="92.764px" height="92.764px" viewBox="0 0 92.764 92.764" style="enable-background:new 0 0 92.764 92.764;"
	 xml:space="preserve">
<g>
	<path d="M69.538,25.82c0.151-0.805-0.264-1.608-1.006-1.95c-3.933-1.815-9.204-2.857-14.46-2.857
		c-17.731,0-32.158,14.426-32.158,32.159c0,11.773,7.861,17.934,15.625,17.934c7.016,0,12.667-2.813,17.171-8.572
		c0.486,2.078,1.412,3.861,2.754,5.27c2.027,2.129,4.918,3.303,8.141,3.303c12.223,0,24.596-11.09,24.596-32.286
		C90.201,15.964,74.133,0,51.123,0C23.439,0,2.562,21.922,2.562,50.996c0,24.201,17.081,41.768,40.616,41.768
		c9.358,0,16.65-1.644,23.644-5.332c0.793-0.419,1.154-1.359,0.84-2.201l-2.05-5.512c-0.183-0.486-0.567-0.871-1.058-1.053
		c-0.489-0.18-1.033-0.135-1.488,0.117c-4.964,2.785-11.354,4.26-18.478,4.26c-18.632,0-31.15-13.188-31.15-32.816
		c0-23.619,15.418-40.762,36.661-40.762c18.027,0,29.228,11.543,29.228,30.125c0,13.384-6.184,21.669-12,21.669
		c-1.114-0.035-1.608-0.498-1.883-0.842c-0.751-0.943-1.786-3.679-0.263-11.399L69.538,25.82z M52.534,31.376
		c1.515,0,2.97,0.144,4.347,0.43l-2.389,12.851c-1.309,7.378-7.656,15.955-13.877,15.955c-6.022,0-6.673-5.562-6.673-7.953
		C33.942,41.122,42.457,31.376,52.534,31.376z"/>
</g>
<g>
</g>
<g>
</g>
<g>
</g>
<g>
</g>
<g>
</g>
<g>
</g>
<g>
</g>
<g>
</g>
<g>
</g>
<g>
</g>
<g>
</g>
<g>
</g>
<g>
</g>
<g>
</g>
<g>
</g>
</svg>
