<?xml version="1.0" encoding="iso-8859-1"?>
<!-- Generator: Adobe Illustrator 16.0.0, SVG Export Plug-In . SVG Version: 6.00 Build 0)  -->
<!DOCTYPE svg PUBLIC "-//W3C//DTD SVG 1.1//EN" "http://www.w3.org/Graphics/SVG/1.1/DTD/svg11.dtd">
<svg version="1.1" id="Capa_1" xmlns="http://www.w3.org/2000/svg" xmlns:xlink="http://www.w3.org/1999/xlink" x="0px" y="0px"
	 width="24px" height="24px" viewBox="0 0 24 24" style="enable-background:new 0 0 24 24;" xml:space="preserve">
<g>
	<path d="M10.513,2.5c0-1.381,1.119-2.5,2.5-2.5c1.381,0,2.5,1.119,2.5,2.5S14.394,5,13.013,5C11.632,5,10.513,3.881,10.513,2.5z
		 M7.313,11c0.301-0.9,1.801-6,1.801-6c-0.9,0-2.2-0.1-3.4,0.9s-2,2.7-2.2,4c-0.2,1.2,0.7,1.6,1.7,1.9
		C6.213,12.1,7.114,11.7,7.313,11z M20.409,7.553c-0.175-0.35-0.528-0.542-0.896-0.543V6h-1v1.382l-2.791,1.396l-2.49-2.573
		C13.227,6.2,13.22,6.198,13.214,6.193c-0.144-0.177-0.407-0.329-0.601-0.393l-2.5-0.6l-1.9,6.5c-0.2,1.2-0.2,2.1,1,3.1l3.3,2.718
		V23c0,0.553,0.447,1,1,1c0.554,0,1-0.447,1-1v-6c0-0.266-0.104-0.52-0.293-0.707l-0.157-0.157L11.713,13.1l1.083-4.469l1.998,2.064
		c0.193,0.2,0.454,0.305,0.719,0.305c0.152,0,0.306-0.035,0.447-0.105l2.553-1.277V24h1V9.118l0.447-0.224
		C20.455,8.647,20.656,8.047,20.409,7.553z M8.013,14.6l-0.5,3.2c0,0.002,0,0.005,0,0.009l-1.929,4.82
		c-0.205,0.514,0.044,1.096,0.557,1.301C6.263,23.979,6.389,24,6.513,24c0.397,0,0.772-0.236,0.93-0.629l1.926-4.816
		c0.065-0.104,0.118-0.22,0.145-0.354l0.4-1.4C8.614,15.7,8.013,15.3,8.013,14.6z"/>
</g>
<g>
</g>
<g>
</g>
<g>
</g>
<g>
</g>
<g>
</g>
<g>
</g>
<g>
</g>
<g>
</g>
<g>
</g>
<g>
</g>
<g>
</g>
<g>
</g>
<g>
</g>
<g>
</g>
<g>
</g>
</svg>
