<?xml version="1.0" encoding="utf-8"?>
<!-- Generator: Adobe Illustrator 18.0.0, SVG Export Plug-In . SVG Version: 6.00 Build 0)  -->
<!DOCTYPE svg PUBLIC "-//W3C//DTD SVG 1.1//EN" "http://www.w3.org/Graphics/SVG/1.1/DTD/svg11.dtd">
<svg version="1.1" id="Capa_1" xmlns:sketch="http://www.bohemiancoding.com/sketch/ns"
	 xmlns="http://www.w3.org/2000/svg" xmlns:xlink="http://www.w3.org/1999/xlink" x="0px" y="0px" viewBox="0 0 32 32"
	 enable-background="new 0 0 32 32" xml:space="preserve">
<title>icon 55 document text</title>
<desc>Created with Sketch.</desc>
<g>
	<path d="M21,10h5l-6-7v6C20,9.6,20.5,10,21,10z"/>
	<path d="M19,9V3H9C7.9,3,7,3.9,7,5v23c0,1.1,0.9,2,2,2h15c1.1,0,2-0.9,2-2V11h-5C19.9,11,19,10.1,19,9z M10,7h7v1h-7V7z M10,10h7v1
		h-7V10z M23,26H10v-1h13V26z M23,23H10v-1h13V23z M23,20H10v-1h13V20z M23,17H10v-1h13V17z M23,14H10v-1h13V14z"/>
</g>
</svg>
